<mxfile host="Electron" modified="2023-09-06T11:39:27.192Z" agent="Mozilla/5.0 (Windows NT 10.0; Win64; x64) AppleWebKit/537.36 (KHTML, like Gecko) draw.io/21.6.5 Chrome/114.0.5735.243 Electron/25.3.1 Safari/537.36" etag="o2hsloHEzUmq0bS75NZS" version="21.6.5" type="device">
  <diagram id="R2lEEEUBdFMjLlhIrx00" name="Page-1">
    <mxGraphModel dx="3816" dy="1640" grid="1" gridSize="10" guides="1" tooltips="1" connect="1" arrows="1" fold="1" page="1" pageScale="1" pageWidth="980" pageHeight="1390" background="none" math="0" shadow="0" extFonts="Permanent Marker^https://fonts.googleapis.com/css?family=Permanent+Marker">
      <root>
        <mxCell id="0" />
        <mxCell id="1" parent="0" />
        <mxCell id="wecATSCT4VCs9piwyTyY-17" style="edgeStyle=orthogonalEdgeStyle;rounded=0;orthogonalLoop=1;jettySize=auto;html=1;exitX=1;exitY=0.5;exitDx=0;exitDy=0;entryX=0.5;entryY=0;entryDx=0;entryDy=0;" edge="1" parent="1" target="MmX11wm5HvuTR1FrTXqp-263">
          <mxGeometry relative="1" as="geometry">
            <mxPoint x="-353.26999999999975" y="267.6800000000002" as="sourcePoint" />
            <mxPoint x="333.6199999999999" y="309.68000000000006" as="targetPoint" />
          </mxGeometry>
        </mxCell>
        <mxCell id="wecATSCT4VCs9piwyTyY-63" style="edgeStyle=orthogonalEdgeStyle;rounded=0;orthogonalLoop=1;jettySize=auto;html=1;exitX=1;exitY=0.25;exitDx=0;exitDy=0;entryX=0.5;entryY=0;entryDx=0;entryDy=0;" edge="1" parent="1" source="MmX11wm5HvuTR1FrTXqp-2" target="MmX11wm5HvuTR1FrTXqp-318">
          <mxGeometry relative="1" as="geometry" />
        </mxCell>
        <mxCell id="MmX11wm5HvuTR1FrTXqp-2" value="Junta" style="shape=ext;margin=3;double=1;whiteSpace=wrap;html=1;align=center;" parent="1" vertex="1">
          <mxGeometry x="-453.27" y="214.68" width="100" height="60" as="geometry" />
        </mxCell>
        <mxCell id="MmX11wm5HvuTR1FrTXqp-77" value="id" style="text;html=1;strokeColor=none;fillColor=none;align=left;verticalAlign=middle;whiteSpace=wrap;rounded=0;fontSize=9;" parent="1" vertex="1">
          <mxGeometry x="-434.20000000000005" y="141.62" width="16.36" height="9.38" as="geometry" />
        </mxCell>
        <mxCell id="MmX11wm5HvuTR1FrTXqp-80" value="" style="endArrow=none;html=1;rounded=0;fontSize=10;entryX=0.1;entryY=-0.012;entryDx=0;entryDy=0;entryPerimeter=0;exitX=0.5;exitY=1;exitDx=0;exitDy=0;" parent="1" source="MmX11wm5HvuTR1FrTXqp-179" target="MmX11wm5HvuTR1FrTXqp-2" edge="1">
          <mxGeometry width="50" height="50" relative="1" as="geometry">
            <mxPoint x="-444.03" y="123.06" as="sourcePoint" />
            <mxPoint x="-443.86" y="179.56" as="targetPoint" />
          </mxGeometry>
        </mxCell>
        <mxCell id="MmX11wm5HvuTR1FrTXqp-179" value="" style="ellipse;whiteSpace=wrap;html=1;aspect=fixed;fillColor=#000000;strokeColor=#000000;fontColor=#000000;" parent="1" vertex="1">
          <mxGeometry x="-448.23" y="140.5" width="11" height="11" as="geometry" />
        </mxCell>
        <mxCell id="wecATSCT4VCs9piwyTyY-66" style="edgeStyle=orthogonalEdgeStyle;rounded=0;orthogonalLoop=1;jettySize=auto;html=1;exitX=1;exitY=0.5;exitDx=0;exitDy=0;entryX=0.5;entryY=0;entryDx=0;entryDy=0;" edge="1" parent="1" source="MmX11wm5HvuTR1FrTXqp-235" target="MmX11wm5HvuTR1FrTXqp-295">
          <mxGeometry relative="1" as="geometry" />
        </mxCell>
        <mxCell id="MmX11wm5HvuTR1FrTXqp-235" value="Comisión" style="shape=ext;margin=3;double=1;whiteSpace=wrap;html=1;align=center;direction=east;" parent="1" vertex="1">
          <mxGeometry x="213.9999999999999" y="399.06000000000006" width="100" height="60" as="geometry" />
        </mxCell>
        <mxCell id="MmX11wm5HvuTR1FrTXqp-239" value="nombre" style="text;html=1;strokeColor=none;fillColor=none;align=left;verticalAlign=middle;whiteSpace=wrap;rounded=0;fontSize=9;" parent="1" vertex="1">
          <mxGeometry x="130.4999999999999" y="420.31000000000006" width="65" height="10" as="geometry" />
        </mxCell>
        <mxCell id="MmX11wm5HvuTR1FrTXqp-241" value="id" style="text;html=1;strokeColor=none;fillColor=none;align=left;verticalAlign=middle;whiteSpace=wrap;rounded=0;fontSize=9;" parent="1" vertex="1">
          <mxGeometry x="154.21999999999989" y="392.87000000000006" width="73" height="9.38" as="geometry" />
        </mxCell>
        <mxCell id="MmX11wm5HvuTR1FrTXqp-242" value="" style="endArrow=none;html=1;rounded=0;fontSize=10;exitX=1;exitY=0.5;exitDx=0;exitDy=0;entryX=0;entryY=0.25;entryDx=0;entryDy=0;" parent="1" source="MmX11wm5HvuTR1FrTXqp-254" edge="1" target="MmX11wm5HvuTR1FrTXqp-235">
          <mxGeometry width="50" height="50" relative="1" as="geometry">
            <mxPoint x="303.9999999999999" y="353.80999999999995" as="sourcePoint" />
            <mxPoint x="313.9999999999999" y="412.06000000000006" as="targetPoint" />
          </mxGeometry>
        </mxCell>
        <mxCell id="MmX11wm5HvuTR1FrTXqp-244" value="" style="endArrow=none;html=1;rounded=0;fontSize=10;entryX=0;entryY=0;entryDx=0;entryDy=0;exitX=1;exitY=0.5;exitDx=0;exitDy=0;" parent="1" source="MmX11wm5HvuTR1FrTXqp-250" edge="1" target="MmX11wm5HvuTR1FrTXqp-235">
          <mxGeometry width="50" height="50" relative="1" as="geometry">
            <mxPoint x="303.9999999999999" y="319.05999999999995" as="sourcePoint" />
            <mxPoint x="313.9999999999999" y="399.06000000000006" as="targetPoint" />
          </mxGeometry>
        </mxCell>
        <mxCell id="MmX11wm5HvuTR1FrTXqp-247" value="descripción" style="text;html=1;strokeColor=none;fillColor=none;align=left;verticalAlign=middle;whiteSpace=wrap;rounded=0;fontSize=9;" parent="1" vertex="1">
          <mxGeometry x="116.28999999999988" y="431.31000000000006" width="65" height="12.5" as="geometry" />
        </mxCell>
        <mxCell id="MmX11wm5HvuTR1FrTXqp-248" value="" style="endArrow=none;html=1;rounded=0;entryX=1;entryY=0.5;entryDx=0;entryDy=0;exitX=0.004;exitY=0.435;exitDx=0;exitDy=0;exitPerimeter=0;" parent="1" target="MmX11wm5HvuTR1FrTXqp-253" edge="1" source="MmX11wm5HvuTR1FrTXqp-235">
          <mxGeometry width="50" height="50" relative="1" as="geometry">
            <mxPoint x="210" y="425" as="sourcePoint" />
            <mxPoint x="303.9999999999999" y="364.30999999999995" as="targetPoint" />
          </mxGeometry>
        </mxCell>
        <mxCell id="MmX11wm5HvuTR1FrTXqp-250" value="" style="ellipse;whiteSpace=wrap;html=1;aspect=fixed;fillColor=#000000;strokeColor=#000000;fontColor=#000000;" parent="1" vertex="1">
          <mxGeometry x="166.49999999999966" y="392.87000000000006" width="11" height="11" as="geometry" />
        </mxCell>
        <mxCell id="MmX11wm5HvuTR1FrTXqp-253" value="" style="ellipse;whiteSpace=wrap;html=1;aspect=fixed;fillColor=#FFFFFF;strokeColor=#000000;fontColor=#000000;" parent="1" vertex="1">
          <mxGeometry x="166.4999999999999" y="420.31000000000006" width="11" height="11" as="geometry" />
        </mxCell>
        <mxCell id="MmX11wm5HvuTR1FrTXqp-254" value="" style="ellipse;whiteSpace=wrap;html=1;aspect=fixed;fillColor=#CCCCCC;strokeColor=#000000;fontColor=#000000;" parent="1" vertex="1">
          <mxGeometry x="166.4999999999999" y="407.43000000000006" width="11" height="11" as="geometry" />
        </mxCell>
        <mxCell id="MmX11wm5HvuTR1FrTXqp-260" value="" style="endArrow=none;html=1;rounded=0;entryX=1;entryY=0.5;entryDx=0;entryDy=0;exitX=-0.001;exitY=0.629;exitDx=0;exitDy=0;exitPerimeter=0;" parent="1" target="MmX11wm5HvuTR1FrTXqp-261" edge="1" source="MmX11wm5HvuTR1FrTXqp-235">
          <mxGeometry width="50" height="50" relative="1" as="geometry">
            <mxPoint x="313.3999999999995" y="437.46000000000004" as="sourcePoint" />
            <mxPoint x="303.9999999999999" y="377.81000000000006" as="targetPoint" />
          </mxGeometry>
        </mxCell>
        <mxCell id="MmX11wm5HvuTR1FrTXqp-261" value="" style="ellipse;whiteSpace=wrap;html=1;aspect=fixed;fillColor=#FFFFFF;strokeColor=#000000;fontColor=#000000;" parent="1" vertex="1">
          <mxGeometry x="166.4999999999999" y="432.81000000000006" width="11" height="11" as="geometry" />
        </mxCell>
        <mxCell id="MmX11wm5HvuTR1FrTXqp-262" value="fechaConstitución" style="text;html=1;strokeColor=none;fillColor=none;align=left;verticalAlign=middle;whiteSpace=wrap;rounded=0;fontSize=9;" parent="1" vertex="1">
          <mxGeometry x="91.29000000000013" y="444.5999999999999" width="65" height="12.5" as="geometry" />
        </mxCell>
        <mxCell id="MmX11wm5HvuTR1FrTXqp-272" value="" style="edgeStyle=orthogonalEdgeStyle;rounded=0;orthogonalLoop=1;jettySize=auto;html=1;" parent="1" source="MmX11wm5HvuTR1FrTXqp-263" target="MmX11wm5HvuTR1FrTXqp-235" edge="1">
          <mxGeometry relative="1" as="geometry" />
        </mxCell>
        <mxCell id="MmX11wm5HvuTR1FrTXqp-263" value="Ju-Com" style="shape=rhombus;perimeter=rhombusPerimeter;whiteSpace=wrap;html=1;align=center;fontStyle=1;fontSize=10;" parent="1" vertex="1">
          <mxGeometry x="234.61999999999978" y="286.67999999999995" width="60" height="60" as="geometry" />
        </mxCell>
        <mxCell id="MmX11wm5HvuTR1FrTXqp-264" value="1:N" style="text;html=1;strokeColor=none;fillColor=none;align=center;verticalAlign=middle;whiteSpace=wrap;rounded=0;fontSize=15;fontStyle=1;direction=east;flipV=0;flipH=0;rotation=90;" parent="1" vertex="1">
          <mxGeometry x="295.4999999999999" y="308.79999999999995" width="22.5" height="15.75" as="geometry" />
        </mxCell>
        <mxCell id="MmX11wm5HvuTR1FrTXqp-265" value="" style="endArrow=none;html=1;rounded=0;fontColor=#000000;strokeColor=#000000;exitX=1;exitY=1;exitDx=0;exitDy=0;entryX=0;entryY=1;entryDx=0;entryDy=0;" parent="1" edge="1">
          <mxGeometry width="50" height="50" relative="1" as="geometry">
            <mxPoint x="279.6199999999998" y="301.67999999999995" as="sourcePoint" />
            <mxPoint x="249.61999999999978" y="301.67999999999995" as="targetPoint" />
          </mxGeometry>
        </mxCell>
        <mxCell id="MmX11wm5HvuTR1FrTXqp-266" value="ID" style="text;html=1;strokeColor=none;fillColor=none;align=center;verticalAlign=middle;whiteSpace=wrap;rounded=0;fontSize=8;fontStyle=1;" parent="1" vertex="1">
          <mxGeometry x="258.9999999999999" y="290.17999999999995" width="11.25" height="12" as="geometry" />
        </mxCell>
        <mxCell id="MmX11wm5HvuTR1FrTXqp-274" value="gestiona" style="text;html=1;strokeColor=none;fillColor=none;align=left;verticalAlign=middle;whiteSpace=wrap;rounded=0;fontSize=9;" parent="1" vertex="1">
          <mxGeometry x="222.2199999999997" y="364.26" width="55" height="12.5" as="geometry" />
        </mxCell>
        <mxCell id="MmX11wm5HvuTR1FrTXqp-275" value="" style="endArrow=none;html=1;rounded=0;entryX=1;entryY=0.5;entryDx=0;entryDy=0;exitX=0.001;exitY=0.845;exitDx=0;exitDy=0;exitPerimeter=0;" parent="1" source="MmX11wm5HvuTR1FrTXqp-235" target="MmX11wm5HvuTR1FrTXqp-276" edge="1">
          <mxGeometry width="50" height="50" relative="1" as="geometry">
            <mxPoint x="210" y="450" as="sourcePoint" />
            <mxPoint x="302.90999999999974" y="462.67999999999995" as="targetPoint" />
          </mxGeometry>
        </mxCell>
        <mxCell id="MmX11wm5HvuTR1FrTXqp-276" value="" style="ellipse;whiteSpace=wrap;html=1;aspect=fixed;fillColor=#FFFFFF;strokeColor=#000000;fontColor=#000000;" parent="1" vertex="1">
          <mxGeometry x="166.4999999999999" y="445.35" width="11" height="11" as="geometry" />
        </mxCell>
        <mxCell id="MmX11wm5HvuTR1FrTXqp-277" value="idJunta" style="text;html=1;strokeColor=none;fillColor=none;align=left;verticalAlign=middle;whiteSpace=wrap;rounded=0;fontSize=9;" parent="1" vertex="1">
          <mxGeometry x="132.4999999999999" y="405.93000000000006" width="65" height="12.5" as="geometry" />
        </mxCell>
        <mxCell id="MmX11wm5HvuTR1FrTXqp-278" value="Convocatoria" style="shape=ext;margin=3;double=1;whiteSpace=wrap;html=1;align=center;" parent="1" vertex="1">
          <mxGeometry x="551.1200000000003" y="750.25" width="100" height="60" as="geometry" />
        </mxCell>
        <mxCell id="MmX11wm5HvuTR1FrTXqp-279" value="lugar" style="text;html=1;strokeColor=none;fillColor=none;align=left;verticalAlign=middle;whiteSpace=wrap;rounded=0;fontSize=9;" parent="1" vertex="1">
          <mxGeometry x="673.3700000000003" y="765.25" width="65" height="10" as="geometry" />
        </mxCell>
        <mxCell id="MmX11wm5HvuTR1FrTXqp-280" value="id" style="text;html=1;strokeColor=none;fillColor=none;align=left;verticalAlign=middle;whiteSpace=wrap;rounded=0;fontSize=9;" parent="1" vertex="1">
          <mxGeometry x="673.3700000000003" y="752.8700000000003" width="73" height="9.38" as="geometry" />
        </mxCell>
        <mxCell id="MmX11wm5HvuTR1FrTXqp-281" value="" style="endArrow=none;html=1;rounded=0;fontSize=10;exitX=0;exitY=0.5;exitDx=0;exitDy=0;entryX=0.998;entryY=0.338;entryDx=0;entryDy=0;entryPerimeter=0;" parent="1" source="MmX11wm5HvuTR1FrTXqp-287" target="MmX11wm5HvuTR1FrTXqp-278" edge="1">
          <mxGeometry width="50" height="50" relative="1" as="geometry">
            <mxPoint x="641.1200000000003" y="714" as="sourcePoint" />
            <mxPoint x="651.1200000000003" y="772.2500000000005" as="targetPoint" />
          </mxGeometry>
        </mxCell>
        <mxCell id="MmX11wm5HvuTR1FrTXqp-282" value="" style="endArrow=none;html=1;rounded=0;fontSize=10;entryX=1;entryY=0.25;entryDx=0;entryDy=0;exitX=0;exitY=0.5;exitDx=0;exitDy=0;" parent="1" source="MmX11wm5HvuTR1FrTXqp-285" edge="1">
          <mxGeometry width="50" height="50" relative="1" as="geometry">
            <mxPoint x="641.1200000000003" y="677.2500000000002" as="sourcePoint" />
            <mxPoint x="651.1200000000003" y="757.2500000000005" as="targetPoint" />
          </mxGeometry>
        </mxCell>
        <mxCell id="MmX11wm5HvuTR1FrTXqp-283" value="fecha" style="text;html=1;strokeColor=none;fillColor=none;align=left;verticalAlign=middle;whiteSpace=wrap;rounded=0;fontSize=9;" parent="1" vertex="1">
          <mxGeometry x="673.1100000000001" y="777.25" width="65" height="12.5" as="geometry" />
        </mxCell>
        <mxCell id="MmX11wm5HvuTR1FrTXqp-284" value="" style="endArrow=none;html=1;rounded=0;entryX=0;entryY=0.5;entryDx=0;entryDy=0;exitX=1.002;exitY=0.549;exitDx=0;exitDy=0;exitPerimeter=0;" parent="1" source="MmX11wm5HvuTR1FrTXqp-278" target="MmX11wm5HvuTR1FrTXqp-286" edge="1">
          <mxGeometry width="50" height="50" relative="1" as="geometry">
            <mxPoint x="651.1200000000003" y="787.2500000000005" as="sourcePoint" />
            <mxPoint x="641.1200000000003" y="726.5" as="targetPoint" />
          </mxGeometry>
        </mxCell>
        <mxCell id="MmX11wm5HvuTR1FrTXqp-285" value="" style="ellipse;whiteSpace=wrap;html=1;aspect=fixed;fillColor=#000000;strokeColor=#000000;fontColor=#000000;" parent="1" vertex="1">
          <mxGeometry x="662.1100000000001" y="751.8700000000003" width="11" height="11" as="geometry" />
        </mxCell>
        <mxCell id="MmX11wm5HvuTR1FrTXqp-286" value="" style="ellipse;whiteSpace=wrap;html=1;aspect=fixed;fillColor=#FFFFFF;strokeColor=#000000;fontColor=#000000;" parent="1" vertex="1">
          <mxGeometry x="662.3700000000003" y="777.75" width="11" height="11" as="geometry" />
        </mxCell>
        <mxCell id="MmX11wm5HvuTR1FrTXqp-287" value="" style="ellipse;whiteSpace=wrap;html=1;aspect=fixed;fillColor=#FFFFFF;strokeColor=#000000;fontColor=#000000;" parent="1" vertex="1">
          <mxGeometry x="662.3700000000003" y="764.8700000000003" width="11" height="11" as="geometry" />
        </mxCell>
        <mxCell id="MmX11wm5HvuTR1FrTXqp-288" value="" style="endArrow=none;html=1;rounded=0;entryX=0;entryY=0.5;entryDx=0;entryDy=0;exitX=1;exitY=0.75;exitDx=0;exitDy=0;" parent="1" source="MmX11wm5HvuTR1FrTXqp-278" target="MmX11wm5HvuTR1FrTXqp-289" edge="1">
          <mxGeometry width="50" height="50" relative="1" as="geometry">
            <mxPoint x="651.1200000000003" y="801.75" as="sourcePoint" />
            <mxPoint x="641.1200000000003" y="741" as="targetPoint" />
          </mxGeometry>
        </mxCell>
        <mxCell id="MmX11wm5HvuTR1FrTXqp-289" value="" style="ellipse;whiteSpace=wrap;html=1;aspect=fixed;fillColor=#FFFFFF;strokeColor=#000000;fontColor=#000000;" parent="1" vertex="1">
          <mxGeometry x="662.3700000000003" y="790.25" width="11" height="11" as="geometry" />
        </mxCell>
        <mxCell id="MmX11wm5HvuTR1FrTXqp-290" value="hora" style="text;html=1;strokeColor=none;fillColor=none;align=left;verticalAlign=middle;whiteSpace=wrap;rounded=0;fontSize=9;" parent="1" vertex="1">
          <mxGeometry x="673.3699999999999" y="789.75" width="65" height="12.5" as="geometry" />
        </mxCell>
        <mxCell id="Ey-6C_wnQBlg7w_FSqS6-69" style="edgeStyle=orthogonalEdgeStyle;rounded=0;orthogonalLoop=1;jettySize=auto;html=1;exitX=0.5;exitY=1;exitDx=0;exitDy=0;entryX=0.107;entryY=-0.011;entryDx=0;entryDy=0;entryPerimeter=0;" parent="1" source="MmX11wm5HvuTR1FrTXqp-292" edge="1" target="MmX11wm5HvuTR1FrTXqp-278">
          <mxGeometry relative="1" as="geometry">
            <mxPoint x="559.54" y="1189.8000000000002" as="targetPoint" />
            <Array as="points">
              <mxPoint x="560" y="750" />
            </Array>
          </mxGeometry>
        </mxCell>
        <mxCell id="MmX11wm5HvuTR1FrTXqp-292" value="Conv-Com" style="shape=rhombus;perimeter=rhombusPerimeter;whiteSpace=wrap;html=1;align=center;fontStyle=1;fontSize=10;" parent="1" vertex="1">
          <mxGeometry x="529.1100000000001" y="481.8600000000001" width="60" height="60" as="geometry" />
        </mxCell>
        <mxCell id="MmX11wm5HvuTR1FrTXqp-293" value="1:N" style="text;html=1;strokeColor=none;fillColor=none;align=center;verticalAlign=middle;whiteSpace=wrap;rounded=0;fontSize=15;fontStyle=1;rotation=90;" parent="1" vertex="1">
          <mxGeometry x="589.1100000000001" y="502.1100000000001" width="22.5" height="15.75" as="geometry" />
        </mxCell>
        <mxCell id="MmX11wm5HvuTR1FrTXqp-294" value="" style="endArrow=none;html=1;rounded=0;fontColor=#000000;strokeColor=#000000;exitX=1;exitY=1;exitDx=0;exitDy=0;entryX=0;entryY=1;entryDx=0;entryDy=0;" parent="1" edge="1">
          <mxGeometry width="50" height="50" relative="1" as="geometry">
            <mxPoint x="574.1100000000001" y="496.8600000000001" as="sourcePoint" />
            <mxPoint x="544.1100000000001" y="496.8600000000001" as="targetPoint" />
          </mxGeometry>
        </mxCell>
        <mxCell id="MmX11wm5HvuTR1FrTXqp-295" value="ID" style="text;html=1;strokeColor=none;fillColor=none;align=center;verticalAlign=middle;whiteSpace=wrap;rounded=0;fontSize=8;fontStyle=1;" parent="1" vertex="1">
          <mxGeometry x="553.4900000000002" y="485.3600000000001" width="11.25" height="12" as="geometry" />
        </mxCell>
        <mxCell id="MmX11wm5HvuTR1FrTXqp-296" value="convoca" style="text;html=1;strokeColor=none;fillColor=none;align=left;verticalAlign=middle;whiteSpace=wrap;rounded=0;fontSize=9;" parent="1" vertex="1">
          <mxGeometry x="515.48" y="717.9300000000003" width="55" height="12.5" as="geometry" />
        </mxCell>
        <mxCell id="MmX11wm5HvuTR1FrTXqp-297" value="" style="endArrow=none;html=1;rounded=0;entryX=0.5;entryY=0;entryDx=0;entryDy=0;exitX=0.797;exitY=0.998;exitDx=0;exitDy=0;exitPerimeter=0;dashed=1;" parent="1" edge="1">
          <mxGeometry width="50" height="50" relative="1" as="geometry">
            <mxPoint x="621.8200000000002" y="810.1300000000006" as="sourcePoint" />
            <mxPoint x="622.0300000000002" y="820.8700000000003" as="targetPoint" />
          </mxGeometry>
        </mxCell>
        <mxCell id="MmX11wm5HvuTR1FrTXqp-298" value="" style="ellipse;whiteSpace=wrap;html=1;aspect=fixed;fillColor=#CCCCCC;strokeColor=#000000;fontColor=#000000;" parent="1" vertex="1">
          <mxGeometry x="616.5300000000002" y="820.8700000000003" width="11" height="11" as="geometry" />
        </mxCell>
        <mxCell id="MmX11wm5HvuTR1FrTXqp-299" value="idCom" style="text;html=1;strokeColor=none;fillColor=none;align=left;verticalAlign=middle;whiteSpace=wrap;rounded=0;fontSize=9;" parent="1" vertex="1">
          <mxGeometry x="607.7400000000002" y="832.8700000000003" width="30.25" height="12.5" as="geometry" />
        </mxCell>
        <mxCell id="MmX11wm5HvuTR1FrTXqp-301" value="es_convocada" style="text;html=1;strokeColor=none;fillColor=none;align=left;verticalAlign=middle;whiteSpace=wrap;rounded=0;fontSize=9;" parent="1" vertex="1">
          <mxGeometry x="-353.27000000000015" y="216.56" width="55" height="12.5" as="geometry" />
        </mxCell>
        <mxCell id="MmX11wm5HvuTR1FrTXqp-303" value="(0,N)" style="text;html=1;strokeColor=none;fillColor=none;align=left;verticalAlign=middle;whiteSpace=wrap;rounded=0;fontSize=9;" parent="1" vertex="1">
          <mxGeometry x="237.77999999999963" y="376.76" width="25.5" height="12.5" as="geometry" />
        </mxCell>
        <mxCell id="MmX11wm5HvuTR1FrTXqp-304" value="(1,1)" style="text;html=1;strokeColor=none;fillColor=none;align=left;verticalAlign=middle;whiteSpace=wrap;rounded=0;fontSize=9;" parent="1" vertex="1">
          <mxGeometry x="-353.2700000000002" y="231.06" width="25.5" height="12.5" as="geometry" />
        </mxCell>
        <mxCell id="MmX11wm5HvuTR1FrTXqp-305" value="(0,N)" style="text;html=1;strokeColor=none;fillColor=none;align=left;verticalAlign=middle;whiteSpace=wrap;rounded=0;fontSize=9;" parent="1" vertex="1">
          <mxGeometry x="530.9900000000002" y="728.3700000000003" width="25.5" height="12.5" as="geometry" />
        </mxCell>
        <mxCell id="MmX11wm5HvuTR1FrTXqp-306" style="edgeStyle=none;rounded=0;orthogonalLoop=1;jettySize=auto;html=1;exitX=0.5;exitY=0;exitDx=0;exitDy=0;endArrow=none;endFill=0;entryX=0.75;entryY=1;entryDx=0;entryDy=0;" parent="1" source="MmX11wm5HvuTR1FrTXqp-307" edge="1">
          <mxGeometry relative="1" as="geometry">
            <mxPoint x="593.4900000000002" y="810.25" as="targetPoint" />
          </mxGeometry>
        </mxCell>
        <mxCell id="MmX11wm5HvuTR1FrTXqp-307" value="" style="ellipse;whiteSpace=wrap;html=1;aspect=fixed;fillColor=#CCCCCC;strokeColor=#000000;fontColor=#000000;" parent="1" vertex="1">
          <mxGeometry x="587.9900000000002" y="820.75" width="11" height="11" as="geometry" />
        </mxCell>
        <mxCell id="MmX11wm5HvuTR1FrTXqp-308" value="idTipo" style="text;html=1;strokeColor=none;fillColor=none;align=left;verticalAlign=middle;whiteSpace=wrap;rounded=0;fontSize=9;" parent="1" vertex="1">
          <mxGeometry x="580.7400000000002" y="833.8700000000003" width="22.74" height="8.75" as="geometry" />
        </mxCell>
        <mxCell id="Ey-6C_wnQBlg7w_FSqS6-76" style="edgeStyle=orthogonalEdgeStyle;rounded=0;orthogonalLoop=1;jettySize=auto;html=1;exitX=0.5;exitY=1;exitDx=0;exitDy=0;" parent="1" source="MmX11wm5HvuTR1FrTXqp-315" target="MmX11wm5HvuTR1FrTXqp-278" edge="1">
          <mxGeometry relative="1" as="geometry" />
        </mxCell>
        <mxCell id="MmX11wm5HvuTR1FrTXqp-315" value="Conv-Jun" style="shape=rhombus;perimeter=rhombusPerimeter;whiteSpace=wrap;html=1;align=center;fontStyle=1;fontSize=10;" parent="1" vertex="1">
          <mxGeometry x="614.9900000000002" y="479.74" width="60" height="60" as="geometry" />
        </mxCell>
        <mxCell id="MmX11wm5HvuTR1FrTXqp-316" value="1:N" style="text;html=1;strokeColor=none;fillColor=none;align=center;verticalAlign=middle;whiteSpace=wrap;rounded=0;fontSize=15;fontStyle=1;rotation=90;" parent="1" vertex="1">
          <mxGeometry x="674.9900000000002" y="499.24" width="22.5" height="15.75" as="geometry" />
        </mxCell>
        <mxCell id="MmX11wm5HvuTR1FrTXqp-317" value="" style="endArrow=none;html=1;rounded=0;fontColor=#000000;strokeColor=#000000;exitX=1;exitY=1;exitDx=0;exitDy=0;entryX=0;entryY=1;entryDx=0;entryDy=0;" parent="1" edge="1">
          <mxGeometry width="50" height="50" relative="1" as="geometry">
            <mxPoint x="659.9900000000002" y="494.74" as="sourcePoint" />
            <mxPoint x="629.9900000000002" y="494.74" as="targetPoint" />
          </mxGeometry>
        </mxCell>
        <mxCell id="MmX11wm5HvuTR1FrTXqp-318" value="ID" style="text;html=1;strokeColor=none;fillColor=none;align=center;verticalAlign=middle;whiteSpace=wrap;rounded=0;fontSize=8;fontStyle=1;" parent="1" vertex="1">
          <mxGeometry x="639.3700000000003" y="483.24" width="11.25" height="12" as="geometry" />
        </mxCell>
        <mxCell id="MmX11wm5HvuTR1FrTXqp-326" value="(0,N)" style="text;html=1;strokeColor=none;fillColor=none;align=left;verticalAlign=middle;whiteSpace=wrap;rounded=0;fontSize=9;" parent="1" vertex="1">
          <mxGeometry x="-491.48000000000013" y="230.06" width="25.5" height="12.5" as="geometry" />
        </mxCell>
        <mxCell id="MmX11wm5HvuTR1FrTXqp-328" value="es_coordinado" style="text;html=1;strokeColor=none;fillColor=none;align=left;verticalAlign=middle;whiteSpace=wrap;rounded=0;fontSize=9;" parent="1" vertex="1">
          <mxGeometry x="-528.8399999999999" y="247.68" width="55" height="12.5" as="geometry" />
        </mxCell>
        <mxCell id="MmX11wm5HvuTR1FrTXqp-333" value="" style="endArrow=none;html=1;rounded=0;entryX=0.5;entryY=0;entryDx=0;entryDy=0;exitX=0.797;exitY=0.998;exitDx=0;exitDy=0;exitPerimeter=0;dashed=1;" parent="1" edge="1">
          <mxGeometry width="50" height="50" relative="1" as="geometry">
            <mxPoint x="648.5300000000002" y="810.0100000000002" as="sourcePoint" />
            <mxPoint x="648.7400000000002" y="820.75" as="targetPoint" />
          </mxGeometry>
        </mxCell>
        <mxCell id="MmX11wm5HvuTR1FrTXqp-334" value="" style="ellipse;whiteSpace=wrap;html=1;aspect=fixed;fillColor=#CCCCCC;strokeColor=#000000;fontColor=#000000;" parent="1" vertex="1">
          <mxGeometry x="643.2400000000002" y="820.75" width="11" height="11" as="geometry" />
        </mxCell>
        <mxCell id="MmX11wm5HvuTR1FrTXqp-336" value="idJun" style="text;html=1;strokeColor=none;fillColor=none;align=left;verticalAlign=middle;whiteSpace=wrap;rounded=0;fontSize=9;" parent="1" vertex="1">
          <mxGeometry x="638.9900000000002" y="832.8700000000003" width="30.25" height="12.5" as="geometry" />
        </mxCell>
        <mxCell id="MmX11wm5HvuTR1FrTXqp-347" value="Miembro&lt;br&gt;Gobierno" style="shape=ext;margin=3;double=1;whiteSpace=wrap;html=1;align=center;" parent="1" vertex="1">
          <mxGeometry x="-162.51999999999998" y="398.41999999999996" width="100" height="60" as="geometry" />
        </mxCell>
        <mxCell id="wecATSCT4VCs9piwyTyY-5" style="edgeStyle=orthogonalEdgeStyle;rounded=0;orthogonalLoop=1;jettySize=auto;html=1;exitX=1;exitY=0.5;exitDx=0;exitDy=0;entryX=0;entryY=0.5;entryDx=0;entryDy=0;" edge="1" parent="1" source="MmX11wm5HvuTR1FrTXqp-397" target="wecATSCT4VCs9piwyTyY-1">
          <mxGeometry relative="1" as="geometry" />
        </mxCell>
        <mxCell id="MmX11wm5HvuTR1FrTXqp-397" value="Usuario" style="whiteSpace=wrap;html=1;align=center;" parent="1" vertex="1">
          <mxGeometry x="-167.48000000000002" y="747.6600000000001" width="100" height="60" as="geometry" />
        </mxCell>
        <mxCell id="MmX11wm5HvuTR1FrTXqp-398" value="name" style="text;html=1;strokeColor=none;fillColor=none;align=left;verticalAlign=middle;whiteSpace=wrap;rounded=0;fontSize=9;fontColor=#000000;direction=east;" parent="1" vertex="1">
          <mxGeometry x="-228.04999999999998" y="765.97" width="42.25" height="12.5" as="geometry" />
        </mxCell>
        <mxCell id="MmX11wm5HvuTR1FrTXqp-399" value="email" style="text;html=1;strokeColor=none;fillColor=none;align=left;verticalAlign=middle;whiteSpace=wrap;rounded=0;fontSize=9;fontColor=#000000;" parent="1" vertex="1">
          <mxGeometry x="-219.22999999999996" y="779.0999999999999" width="86" height="15.5" as="geometry" />
        </mxCell>
        <mxCell id="MmX11wm5HvuTR1FrTXqp-400" value="" style="endArrow=none;html=1;rounded=0;fontSize=10;exitX=-0.006;exitY=0.416;exitDx=0;exitDy=0;strokeColor=#000000;fontColor=#000000;entryX=1;entryY=0.5;entryDx=0;entryDy=0;exitPerimeter=0;" parent="1" source="MmX11wm5HvuTR1FrTXqp-397" target="MmX11wm5HvuTR1FrTXqp-409" edge="1">
          <mxGeometry width="50" height="50" relative="1" as="geometry">
            <mxPoint x="-117.48000000000002" y="878.6600000000001" as="sourcePoint" />
            <mxPoint x="-142.17000000000007" y="827.72" as="targetPoint" />
          </mxGeometry>
        </mxCell>
        <mxCell id="MmX11wm5HvuTR1FrTXqp-406" value="id" style="text;html=1;strokeColor=none;fillColor=none;align=left;verticalAlign=middle;whiteSpace=wrap;rounded=0;fontSize=9;fontColor=#000000;direction=east;" parent="1" vertex="1">
          <mxGeometry x="-205.76999999999998" y="748.9699999999998" width="45.25" height="12.5" as="geometry" />
        </mxCell>
        <mxCell id="MmX11wm5HvuTR1FrTXqp-407" value="" style="endArrow=none;html=1;rounded=0;fontColor=#000000;strokeColor=#000000;entryX=1;entryY=0.5;entryDx=0;entryDy=0;exitX=0.001;exitY=0.121;exitDx=0;exitDy=0;exitPerimeter=0;" parent="1" source="MmX11wm5HvuTR1FrTXqp-397" target="MmX11wm5HvuTR1FrTXqp-410" edge="1">
          <mxGeometry width="50" height="50" relative="1" as="geometry">
            <mxPoint x="-142.48000000000002" y="878.6600000000001" as="sourcePoint" />
            <mxPoint x="-93.97999999999706" y="715.1600000000001" as="targetPoint" />
          </mxGeometry>
        </mxCell>
        <mxCell id="MmX11wm5HvuTR1FrTXqp-408" value="" style="ellipse;whiteSpace=wrap;html=1;aspect=fixed;fillColor=#FFFFFF;strokeColor=#000000;fontColor=#000000;direction=east;" parent="1" vertex="1">
          <mxGeometry x="-192.79999999999998" y="781.5999999999999" width="11" height="11" as="geometry" />
        </mxCell>
        <mxCell id="MmX11wm5HvuTR1FrTXqp-409" value="" style="ellipse;whiteSpace=wrap;html=1;aspect=fixed;fillColor=#FFFFFF;strokeColor=#000000;fontColor=#000000;direction=east;" parent="1" vertex="1">
          <mxGeometry x="-192.79999999999998" y="766.85" width="11" height="11" as="geometry" />
        </mxCell>
        <mxCell id="MmX11wm5HvuTR1FrTXqp-410" value="" style="ellipse;whiteSpace=wrap;html=1;aspect=fixed;fillColor=#000000;strokeColor=#000000;fontColor=#000000;direction=east;" parent="1" vertex="1">
          <mxGeometry x="-192.8" y="749.47" width="11" height="11" as="geometry" />
        </mxCell>
        <mxCell id="MmX11wm5HvuTR1FrTXqp-412" value="" style="endArrow=none;html=1;rounded=0;fontSize=10;entryX=1;entryY=0.5;entryDx=0;entryDy=0;strokeColor=#000000;fontColor=#000000;exitX=-0.001;exitY=0.676;exitDx=0;exitDy=0;exitPerimeter=0;" parent="1" source="MmX11wm5HvuTR1FrTXqp-397" target="MmX11wm5HvuTR1FrTXqp-408" edge="1">
          <mxGeometry width="50" height="50" relative="1" as="geometry">
            <mxPoint x="-172" y="786" as="sourcePoint" />
            <mxPoint x="-107.48000000000002" y="854.9100000000001" as="targetPoint" />
          </mxGeometry>
        </mxCell>
        <mxCell id="yooLV80YAIJDi9W8emZc-13" style="edgeStyle=orthogonalEdgeStyle;rounded=0;orthogonalLoop=1;jettySize=auto;html=1;exitX=0;exitY=0.5;exitDx=0;exitDy=0;entryX=0.677;entryY=0.995;entryDx=0;entryDy=0;entryPerimeter=0;" parent="1" source="NSej-nHTsgWwxNNao5oT-11" target="MmX11wm5HvuTR1FrTXqp-2" edge="1">
          <mxGeometry relative="1" as="geometry">
            <Array as="points">
              <mxPoint x="-386" y="411" />
              <mxPoint x="-386" y="302" />
            </Array>
          </mxGeometry>
        </mxCell>
        <mxCell id="G0A-RFpU1yBWGsKyXfba-46" style="edgeStyle=orthogonalEdgeStyle;rounded=0;orthogonalLoop=1;jettySize=auto;html=1;exitX=1;exitY=0.5;exitDx=0;exitDy=0;entryX=0;entryY=0.25;entryDx=0;entryDy=0;" parent="1" source="MmX11wm5HvuTR1FrTXqp-569" target="MmX11wm5HvuTR1FrTXqp-347" edge="1">
          <mxGeometry relative="1" as="geometry" />
        </mxCell>
        <mxCell id="MmX11wm5HvuTR1FrTXqp-569" value="&lt;font style=&quot;font-size: 8px;&quot;&gt;&amp;nbsp; &amp;nbsp; &amp;nbsp;Ju-MiGob&lt;/font&gt;" style="shape=rhombus;perimeter=rhombusPerimeter;whiteSpace=wrap;html=1;align=center;fontStyle=1;fontSize=10;" parent="1" vertex="1">
          <mxGeometry x="-344.02" y="383.38" width="60" height="60" as="geometry" />
        </mxCell>
        <mxCell id="MmX11wm5HvuTR1FrTXqp-694" value="fechaTomaPosesión" style="text;html=1;strokeColor=none;fillColor=none;align=left;verticalAlign=middle;whiteSpace=wrap;rounded=0;fontSize=9;" parent="1" vertex="1">
          <mxGeometry x="369.66999999999985" y="769.73" width="65" height="12.5" as="geometry" />
        </mxCell>
        <mxCell id="MmX11wm5HvuTR1FrTXqp-695" value="" style="ellipse;whiteSpace=wrap;html=1;aspect=fixed;fillColor=#FFFFFF;strokeColor=#000000;fontColor=#000000;" parent="1" vertex="1">
          <mxGeometry x="358.6700000000001" y="769.9900000000002" width="11" height="11" as="geometry" />
        </mxCell>
        <mxCell id="MmX11wm5HvuTR1FrTXqp-696" value="" style="ellipse;whiteSpace=wrap;html=1;aspect=fixed;fillColor=#FFFFFF;strokeColor=#000000;fontColor=#000000;" parent="1" vertex="1">
          <mxGeometry x="358.6700000000001" y="784.4900000000002" width="11" height="11" as="geometry" />
        </mxCell>
        <mxCell id="MmX11wm5HvuTR1FrTXqp-697" value="fechaCese" style="text;html=1;strokeColor=none;fillColor=none;align=left;verticalAlign=middle;whiteSpace=wrap;rounded=0;fontSize=9;" parent="1" vertex="1">
          <mxGeometry x="370.3799999999999" y="782.99" width="45.06" height="12.5" as="geometry" />
        </mxCell>
        <mxCell id="wecATSCT4VCs9piwyTyY-6" style="edgeStyle=orthogonalEdgeStyle;rounded=0;orthogonalLoop=1;jettySize=auto;html=1;exitX=0;exitY=0.5;exitDx=0;exitDy=0;entryX=1;entryY=0.5;entryDx=0;entryDy=0;" edge="1" parent="1" source="yooLV80YAIJDi9W8emZc-2" target="wecATSCT4VCs9piwyTyY-1">
          <mxGeometry relative="1" as="geometry" />
        </mxCell>
        <mxCell id="wecATSCT4VCs9piwyTyY-33" style="edgeStyle=orthogonalEdgeStyle;rounded=0;orthogonalLoop=1;jettySize=auto;html=1;exitX=0.5;exitY=1;exitDx=0;exitDy=0;entryX=0.5;entryY=0;entryDx=0;entryDy=0;" edge="1" parent="1" source="yooLV80YAIJDi9W8emZc-2">
          <mxGeometry relative="1" as="geometry">
            <mxPoint x="265.12499999999955" y="880" as="targetPoint" />
          </mxGeometry>
        </mxCell>
        <mxCell id="yooLV80YAIJDi9W8emZc-2" value="Miembro&lt;br&gt;Comisión" style="shape=ext;margin=3;double=1;whiteSpace=wrap;html=1;align=center;" parent="1" vertex="1">
          <mxGeometry x="205.33000000000004" y="744.47" width="120" height="65" as="geometry" />
        </mxCell>
        <mxCell id="yooLV80YAIJDi9W8emZc-31" style="edgeStyle=orthogonalEdgeStyle;rounded=0;orthogonalLoop=1;jettySize=auto;html=1;exitX=0.5;exitY=1;exitDx=0;exitDy=0;entryX=0.5;entryY=0;entryDx=0;entryDy=0;" parent="1" source="yooLV80YAIJDi9W8emZc-15" target="yooLV80YAIJDi9W8emZc-2" edge="1">
          <mxGeometry relative="1" as="geometry" />
        </mxCell>
        <mxCell id="yooLV80YAIJDi9W8emZc-15" value="MiCom-&lt;br&gt;Com" style="shape=rhombus;perimeter=rhombusPerimeter;whiteSpace=wrap;html=1;align=center;fontStyle=1;fontSize=10;" parent="1" vertex="1">
          <mxGeometry x="234.88" y="557.74" width="60" height="60" as="geometry" />
        </mxCell>
        <mxCell id="G0A-RFpU1yBWGsKyXfba-67" style="edgeStyle=orthogonalEdgeStyle;rounded=0;orthogonalLoop=1;jettySize=auto;html=1;exitX=0.5;exitY=0;exitDx=0;exitDy=0;entryX=0.5;entryY=1;entryDx=0;entryDy=0;" parent="1" source="yooLV80YAIJDi9W8emZc-17" target="MmX11wm5HvuTR1FrTXqp-235" edge="1">
          <mxGeometry relative="1" as="geometry" />
        </mxCell>
        <mxCell id="yooLV80YAIJDi9W8emZc-17" value="ID" style="text;html=1;strokeColor=none;fillColor=none;align=center;verticalAlign=middle;whiteSpace=wrap;rounded=0;fontSize=8;fontStyle=1;" parent="1" vertex="1">
          <mxGeometry x="258.66999999999996" y="557.74" width="12.43" height="20" as="geometry" />
        </mxCell>
        <mxCell id="yooLV80YAIJDi9W8emZc-18" value="" style="endArrow=none;html=1;rounded=0;exitX=1;exitY=0;exitDx=0;exitDy=0;entryX=0;entryY=0;entryDx=0;entryDy=0;" parent="1" source="yooLV80YAIJDi9W8emZc-15" target="yooLV80YAIJDi9W8emZc-15" edge="1">
          <mxGeometry width="50" height="50" relative="1" as="geometry">
            <mxPoint x="144.88" y="578.1100000000001" as="sourcePoint" />
            <mxPoint x="194.88" y="528.1099999999999" as="targetPoint" />
          </mxGeometry>
        </mxCell>
        <mxCell id="yooLV80YAIJDi9W8emZc-61" value="idComisión" style="text;html=1;strokeColor=none;fillColor=none;align=left;verticalAlign=middle;whiteSpace=wrap;rounded=0;fontSize=9;" parent="1" vertex="1">
          <mxGeometry x="370.29999999999995" y="757.6500000000001" width="28.52" height="10" as="geometry" />
        </mxCell>
        <mxCell id="yooLV80YAIJDi9W8emZc-62" value="idUsuario" style="text;html=1;strokeColor=none;fillColor=none;align=left;verticalAlign=middle;whiteSpace=wrap;rounded=0;fontSize=9;" parent="1" vertex="1">
          <mxGeometry x="370.45000000000005" y="746.0900000000001" width="35.52" height="9.38" as="geometry" />
        </mxCell>
        <mxCell id="Ey-6C_wnQBlg7w_FSqS6-24" style="edgeStyle=orthogonalEdgeStyle;rounded=0;orthogonalLoop=1;jettySize=auto;html=1;exitX=0;exitY=0.5;exitDx=0;exitDy=0;entryX=0.987;entryY=0.04;entryDx=0;entryDy=0;entryPerimeter=0;strokeColor=default;endArrow=none;endFill=0;" parent="1" source="yooLV80YAIJDi9W8emZc-64" target="yooLV80YAIJDi9W8emZc-2" edge="1">
          <mxGeometry relative="1" as="geometry" />
        </mxCell>
        <mxCell id="yooLV80YAIJDi9W8emZc-64" value="" style="ellipse;whiteSpace=wrap;html=1;aspect=fixed;fillColor=#B3B3B3;strokeColor=#000000;fontColor=#000000;gradientColor=default;gradientDirection=west;" parent="1" vertex="1">
          <mxGeometry x="357.66999999999985" y="742.4700000000003" width="11" height="11" as="geometry" />
        </mxCell>
        <mxCell id="yooLV80YAIJDi9W8emZc-66" value="" style="ellipse;whiteSpace=wrap;html=1;aspect=fixed;fillColor=#B3B3B3;strokeColor=#000000;fontColor=#000000;gradientColor=default;gradientDirection=west;" parent="1" vertex="1">
          <mxGeometry x="358.6700000000001" y="755.6500000000001" width="11" height="11" as="geometry" />
        </mxCell>
        <mxCell id="wt0K1hmHgsjhLcT-p73o-23" style="edgeStyle=orthogonalEdgeStyle;rounded=0;orthogonalLoop=1;jettySize=auto;html=1;exitX=0;exitY=0.5;exitDx=0;exitDy=0;entryX=0.993;entryY=0.387;entryDx=0;entryDy=0;entryPerimeter=0;" parent="1" source="_VbOPjBLyvqnEfAaVFIH-2" edge="1">
          <mxGeometry relative="1" as="geometry">
            <mxPoint x="-692.0900000000004" y="243.72000000000008" as="targetPoint" />
          </mxGeometry>
        </mxCell>
        <mxCell id="_VbOPjBLyvqnEfAaVFIH-2" value="&amp;nbsp; &amp;nbsp; &amp;nbsp; Ct - Ju" style="shape=rhombus;perimeter=rhombusPerimeter;whiteSpace=wrap;html=1;align=left;fontStyle=1;fontSize=10;" parent="1" vertex="1">
          <mxGeometry x="-594.73" y="214.5" width="60" height="60" as="geometry" />
        </mxCell>
        <mxCell id="_VbOPjBLyvqnEfAaVFIH-4" value="1:N" style="text;html=1;strokeColor=none;fillColor=none;align=center;verticalAlign=middle;whiteSpace=wrap;rounded=0;fontSize=15;fontStyle=1;" parent="1" vertex="1">
          <mxGeometry x="-575.94" y="192.62" width="22.43" height="20" as="geometry" />
        </mxCell>
        <mxCell id="_VbOPjBLyvqnEfAaVFIH-5" value="(1,1)" style="text;html=1;strokeColor=none;fillColor=none;align=left;verticalAlign=middle;whiteSpace=wrap;rounded=0;fontSize=9;" parent="1" vertex="1">
          <mxGeometry x="-683.9399999999999" y="229.18" width="22.5" height="12.5" as="geometry" />
        </mxCell>
        <mxCell id="_VbOPjBLyvqnEfAaVFIH-6" value="coordina" style="text;html=1;strokeColor=none;fillColor=none;align=left;verticalAlign=middle;whiteSpace=wrap;rounded=0;fontSize=9;" parent="1" vertex="1">
          <mxGeometry x="-685.9399999999999" y="248.18" width="50" height="12.5" as="geometry" />
        </mxCell>
        <mxCell id="_VbOPjBLyvqnEfAaVFIH-7" value="nombre" style="text;html=1;strokeColor=none;fillColor=none;align=left;verticalAlign=middle;whiteSpace=wrap;rounded=0;fontSize=9;" parent="1" vertex="1">
          <mxGeometry x="-772.2799999999999" y="154" width="37.5" height="12.5" as="geometry" />
        </mxCell>
        <mxCell id="_VbOPjBLyvqnEfAaVFIH-8" value="dirección" style="text;html=1;strokeColor=none;fillColor=none;align=left;verticalAlign=middle;whiteSpace=wrap;rounded=0;fontSize=9;" parent="1" vertex="1">
          <mxGeometry x="-758.8899999999999" y="168" width="63.5" height="12.5" as="geometry" />
        </mxCell>
        <mxCell id="_VbOPjBLyvqnEfAaVFIH-9" value="idTipo" style="text;html=1;strokeColor=none;fillColor=none;align=left;verticalAlign=middle;whiteSpace=wrap;rounded=0;fontSize=9;" parent="1" vertex="1">
          <mxGeometry x="-746.8899999999999" y="181.56" width="53.5" height="12.5" as="geometry" />
        </mxCell>
        <mxCell id="_VbOPjBLyvqnEfAaVFIH-10" value="" style="endArrow=none;html=1;rounded=0;fontSize=11;entryX=0.5;entryY=1;entryDx=0;entryDy=0;exitX=0;exitY=0;exitDx=0;exitDy=0;" parent="1" target="_VbOPjBLyvqnEfAaVFIH-20" edge="1">
          <mxGeometry width="50" height="50" relative="1" as="geometry">
            <mxPoint x="-791.3900000000001" y="220.50000000000006" as="sourcePoint" />
            <mxPoint x="-698.8899999999999" y="108" as="targetPoint" />
          </mxGeometry>
        </mxCell>
        <mxCell id="_VbOPjBLyvqnEfAaVFIH-11" value="" style="endArrow=none;html=1;rounded=0;fontSize=11;entryX=0;entryY=0.5;entryDx=0;entryDy=0;exitX=0.25;exitY=0;exitDx=0;exitDy=0;startArrow=none;" parent="1" source="_VbOPjBLyvqnEfAaVFIH-23" edge="1">
          <mxGeometry width="50" height="50" relative="1" as="geometry">
            <mxPoint x="-781.3899999999999" y="243.5" as="sourcePoint" />
            <mxPoint x="-768.8899999999999" y="177" as="targetPoint" />
          </mxGeometry>
        </mxCell>
        <mxCell id="_VbOPjBLyvqnEfAaVFIH-12" value="" style="endArrow=none;html=1;rounded=0;fontSize=11;entryX=0.5;entryY=1;entryDx=0;entryDy=0;exitX=0.38;exitY=0;exitDx=0;exitDy=0;exitPerimeter=0;" parent="1" target="_VbOPjBLyvqnEfAaVFIH-21" edge="1">
          <mxGeometry width="50" height="50" relative="1" as="geometry">
            <mxPoint x="-753.3900000000001" y="220.50000000000006" as="sourcePoint" />
            <mxPoint x="-698.8899999999999" y="146.75" as="targetPoint" />
          </mxGeometry>
        </mxCell>
        <mxCell id="wt0K1hmHgsjhLcT-p73o-24" style="edgeStyle=orthogonalEdgeStyle;rounded=0;orthogonalLoop=1;jettySize=auto;html=1;exitX=0.97;exitY=0.489;exitDx=0;exitDy=0;entryX=0;entryY=0.5;entryDx=0;entryDy=0;exitPerimeter=0;" parent="1" source="_VbOPjBLyvqnEfAaVFIH-2" target="MmX11wm5HvuTR1FrTXqp-2" edge="1">
          <mxGeometry relative="1" as="geometry" />
        </mxCell>
        <mxCell id="_VbOPjBLyvqnEfAaVFIH-15" value="ID" style="text;html=1;strokeColor=none;fillColor=none;align=center;verticalAlign=middle;whiteSpace=wrap;rounded=0;fontSize=8;fontStyle=1;" parent="1" vertex="1">
          <mxGeometry x="-591.19" y="234.62" width="12.43" height="20" as="geometry" />
        </mxCell>
        <mxCell id="_VbOPjBLyvqnEfAaVFIH-16" value="" style="endArrow=none;html=1;rounded=0;exitX=0;exitY=0;exitDx=0;exitDy=0;entryX=0;entryY=1;entryDx=0;entryDy=0;" parent="1" edge="1">
          <mxGeometry width="50" height="50" relative="1" as="geometry">
            <mxPoint x="-579.73" y="229.49999999999994" as="sourcePoint" />
            <mxPoint x="-579.73" y="259.49999999999994" as="targetPoint" />
          </mxGeometry>
        </mxCell>
        <mxCell id="_VbOPjBLyvqnEfAaVFIH-17" value="id" style="text;html=1;strokeColor=none;fillColor=none;align=left;verticalAlign=middle;whiteSpace=wrap;rounded=0;fontSize=9;" parent="1" vertex="1">
          <mxGeometry x="-781.8899999999999" y="141" width="70.5" height="12.5" as="geometry" />
        </mxCell>
        <mxCell id="_VbOPjBLyvqnEfAaVFIH-18" value="" style="endArrow=none;html=1;rounded=0;fontSize=10;fontColor=#000000;strokeColor=#000000;exitX=0.12;exitY=0;exitDx=0;exitDy=0;entryX=0.5;entryY=1;entryDx=0;entryDy=0;exitPerimeter=0;" parent="1" target="_VbOPjBLyvqnEfAaVFIH-19" edge="1">
          <mxGeometry width="50" height="50" relative="1" as="geometry">
            <mxPoint x="-779.3900000000001" y="220.50000000000006" as="sourcePoint" />
            <mxPoint x="-698.8899999999999" y="121" as="targetPoint" />
          </mxGeometry>
        </mxCell>
        <mxCell id="_VbOPjBLyvqnEfAaVFIH-19" value="" style="ellipse;whiteSpace=wrap;html=1;aspect=fixed;fillColor=#FFFFFF;strokeColor=#000000;fontColor=#000000;" parent="1" vertex="1">
          <mxGeometry x="-784.8899999999999" y="155.5" width="11" height="11" as="geometry" />
        </mxCell>
        <mxCell id="_VbOPjBLyvqnEfAaVFIH-20" value="" style="ellipse;whiteSpace=wrap;html=1;aspect=fixed;fillColor=#000000;strokeColor=#000000;fontColor=#000000;" parent="1" vertex="1">
          <mxGeometry x="-796.8899999999999" y="142.5" width="11" height="11" as="geometry" />
        </mxCell>
        <mxCell id="_VbOPjBLyvqnEfAaVFIH-21" value="" style="ellipse;whiteSpace=wrap;html=1;aspect=fixed;fillColor=#CCCCCC;strokeColor=#000000;fontColor=#000000;" parent="1" vertex="1">
          <mxGeometry x="-758.8899999999999" y="182.5" width="11" height="11" as="geometry" />
        </mxCell>
        <mxCell id="_VbOPjBLyvqnEfAaVFIH-23" value="" style="ellipse;whiteSpace=wrap;html=1;aspect=fixed;fillColor=#FFFFFF;strokeColor=#000000;fontColor=#000000;" parent="1" vertex="1">
          <mxGeometry x="-771.8899999999999" y="169.5" width="11" height="11" as="geometry" />
        </mxCell>
        <mxCell id="_VbOPjBLyvqnEfAaVFIH-24" value="" style="endArrow=none;html=1;rounded=0;fontSize=11;entryX=0.5;entryY=1;entryDx=0;entryDy=0;exitX=0.25;exitY=0;exitDx=0;exitDy=0;" parent="1" target="_VbOPjBLyvqnEfAaVFIH-23" edge="1">
          <mxGeometry width="50" height="50" relative="1" as="geometry">
            <mxPoint x="-766.3900000000001" y="220.50000000000006" as="sourcePoint" />
            <mxPoint x="-698.8899999999999" y="134" as="targetPoint" />
          </mxGeometry>
        </mxCell>
        <mxCell id="_VbOPjBLyvqnEfAaVFIH-31" value="1:N" style="text;html=1;strokeColor=none;fillColor=none;align=center;verticalAlign=middle;whiteSpace=wrap;rounded=0;fontSize=15;fontStyle=1;direction=east;flipV=0;flipH=0;rotation=90;" parent="1" vertex="1">
          <mxGeometry x="294.8800000000001" y="577.98" width="22.5" height="15.75" as="geometry" />
        </mxCell>
        <mxCell id="wt0K1hmHgsjhLcT-p73o-5" value="fechaConstitución" style="text;html=1;strokeColor=none;fillColor=none;align=left;verticalAlign=middle;whiteSpace=wrap;rounded=0;fontSize=9;" parent="1" vertex="1">
          <mxGeometry x="-422.2699999999999" y="157.93999999999988" width="65" height="12.5" as="geometry" />
        </mxCell>
        <mxCell id="wt0K1hmHgsjhLcT-p73o-6" value="" style="ellipse;whiteSpace=wrap;html=1;aspect=fixed;fillColor=#FFFFFF;strokeColor=#000000;fontColor=#000000;" parent="1" vertex="1">
          <mxGeometry x="-434.2" y="157.9400000000001" width="11" height="11" as="geometry" />
        </mxCell>
        <mxCell id="wt0K1hmHgsjhLcT-p73o-7" value="" style="ellipse;whiteSpace=wrap;html=1;aspect=fixed;fillColor=#FFFFFF;strokeColor=#000000;fontColor=#000000;" parent="1" vertex="1">
          <mxGeometry x="-423.20000000000005" y="173.01000000000005" width="12.05" height="12.05" as="geometry" />
        </mxCell>
        <mxCell id="wt0K1hmHgsjhLcT-p73o-8" value="fechaDisolución" style="text;html=1;strokeColor=none;fillColor=none;align=left;verticalAlign=middle;whiteSpace=wrap;rounded=0;fontSize=9;" parent="1" vertex="1">
          <mxGeometry x="-408.45000000000005" y="172.01" width="45.06" height="12.5" as="geometry" />
        </mxCell>
        <mxCell id="wt0K1hmHgsjhLcT-p73o-9" value="" style="endArrow=none;html=1;rounded=0;entryX=0.5;entryY=1;entryDx=0;entryDy=0;exitX=0.25;exitY=0;exitDx=0;exitDy=0;" parent="1" source="MmX11wm5HvuTR1FrTXqp-2" target="wt0K1hmHgsjhLcT-p73o-6" edge="1">
          <mxGeometry width="50" height="50" relative="1" as="geometry">
            <mxPoint x="-428.26999999999975" y="178.6799999999999" as="sourcePoint" />
            <mxPoint x="-417.81" y="144.74" as="targetPoint" />
          </mxGeometry>
        </mxCell>
        <mxCell id="wt0K1hmHgsjhLcT-p73o-10" value="" style="endArrow=none;html=1;rounded=0;entryX=0.5;entryY=1;entryDx=0;entryDy=0;exitX=0.367;exitY=-0.004;exitDx=0;exitDy=0;exitPerimeter=0;dashed=1;" parent="1" source="MmX11wm5HvuTR1FrTXqp-2" target="wt0K1hmHgsjhLcT-p73o-7" edge="1">
          <mxGeometry width="50" height="50" relative="1" as="geometry">
            <mxPoint x="-416.03" y="208.06" as="sourcePoint" />
            <mxPoint x="-359.3900000000003" y="153.6999999999997" as="targetPoint" />
          </mxGeometry>
        </mxCell>
        <mxCell id="wt0K1hmHgsjhLcT-p73o-34" value="&lt;h1&gt;Ju - MiJu&lt;/h1&gt;&lt;p&gt;La Junta estará formada por quien ostente la dirección del centro, que la presidirá, y por la persona que ocupe la secretaría del centro (miembros del equipo de gobierno), más un número determinado de miembros distribuidos según reglamento. (miembros junta)&lt;/p&gt;" style="text;html=1;strokeColor=none;fillColor=none;spacing=5;spacingTop=-20;whiteSpace=wrap;overflow=hidden;rounded=0;fontStyle=2;" parent="1" vertex="1">
          <mxGeometry x="-829.68" y="1068.69" width="219.08" height="170" as="geometry" />
        </mxCell>
        <mxCell id="wt0K1hmHgsjhLcT-p73o-37" value="idCentro" style="text;html=1;strokeColor=none;fillColor=none;align=left;verticalAlign=middle;whiteSpace=wrap;rounded=0;fontSize=9;" parent="1" vertex="1">
          <mxGeometry x="-395.5200000000001" y="183.5" width="75" height="12.5" as="geometry" />
        </mxCell>
        <mxCell id="wt0K1hmHgsjhLcT-p73o-38" value="" style="endArrow=none;html=1;rounded=0;fontSize=10;entryX=0.5;entryY=0;entryDx=0;entryDy=0;exitX=0.5;exitY=1;exitDx=0;exitDy=0;" parent="1" source="wt0K1hmHgsjhLcT-p73o-39" edge="1">
          <mxGeometry width="50" height="50" relative="1" as="geometry">
            <mxPoint x="-363.02" y="114.56" as="sourcePoint" />
            <mxPoint x="-403.03" y="215.06" as="targetPoint" />
          </mxGeometry>
        </mxCell>
        <mxCell id="wt0K1hmHgsjhLcT-p73o-39" value="" style="ellipse;whiteSpace=wrap;html=1;aspect=fixed;fillColor=#CCCCCC;strokeColor=#000000;fontColor=#000000;" parent="1" vertex="1">
          <mxGeometry x="-408.51999999999975" y="185.81" width="11" height="11" as="geometry" />
        </mxCell>
        <mxCell id="wt0K1hmHgsjhLcT-p73o-63" value="idUsuario" style="text;html=1;strokeColor=none;fillColor=none;align=left;verticalAlign=middle;whiteSpace=wrap;rounded=0;fontSize=9;" parent="1" vertex="1">
          <mxGeometry x="-145.9099999999999" y="305.9999999999999" width="65" height="12.5" as="geometry" />
        </mxCell>
        <mxCell id="wt0K1hmHgsjhLcT-p73o-64" value="" style="ellipse;whiteSpace=wrap;html=1;aspect=fixed;fillColor=#CCCCCC;strokeColor=#000000;fontColor=#000000;gradientColor=default;gradientDirection=west;" parent="1" vertex="1">
          <mxGeometry x="-157.83999999999997" y="306.0000000000001" width="11" height="11" as="geometry" />
        </mxCell>
        <mxCell id="wt0K1hmHgsjhLcT-p73o-65" value="" style="ellipse;whiteSpace=wrap;html=1;aspect=fixed;fillColor=#CCCCCC;strokeColor=#000000;fontColor=#000000;gradientColor=default;gradientDirection=west;" parent="1" vertex="1">
          <mxGeometry x="-146.84000000000003" y="321.07000000000005" width="12.05" height="12.05" as="geometry" />
        </mxCell>
        <mxCell id="wt0K1hmHgsjhLcT-p73o-66" value="idJunta" style="text;html=1;strokeColor=none;fillColor=none;align=left;verticalAlign=middle;whiteSpace=wrap;rounded=0;fontSize=9;" parent="1" vertex="1">
          <mxGeometry x="-132.09000000000003" y="320.07000000000005" width="45.06" height="12.5" as="geometry" />
        </mxCell>
        <mxCell id="wt0K1hmHgsjhLcT-p73o-67" value="fechaTomaPosesión" style="text;html=1;strokeColor=none;fillColor=none;align=left;verticalAlign=middle;whiteSpace=wrap;rounded=0;fontSize=9;" parent="1" vertex="1">
          <mxGeometry x="-117.16000000000008" y="334.56000000000006" width="75" height="12.5" as="geometry" />
        </mxCell>
        <mxCell id="wt0K1hmHgsjhLcT-p73o-68" value="" style="ellipse;whiteSpace=wrap;html=1;aspect=fixed;fillColor=#FFFFFF;strokeColor=#000000;fontColor=#000000;" parent="1" vertex="1">
          <mxGeometry x="-132.15999999999974" y="333.87" width="11" height="11" as="geometry" />
        </mxCell>
        <mxCell id="wt0K1hmHgsjhLcT-p73o-69" value="fechaCese" style="text;html=1;strokeColor=none;fillColor=none;align=left;verticalAlign=middle;whiteSpace=wrap;rounded=0;fontSize=9;" parent="1" vertex="1">
          <mxGeometry x="-104.84000000000003" y="348.7399999999999" width="75" height="12.5" as="geometry" />
        </mxCell>
        <mxCell id="wt0K1hmHgsjhLcT-p73o-70" value="" style="ellipse;whiteSpace=wrap;html=1;aspect=fixed;fillColor=#FFFFFF;strokeColor=#000000;fontColor=#000000;" parent="1" vertex="1">
          <mxGeometry x="-117.23999999999967" y="350.7399999999999" width="11" height="11" as="geometry" />
        </mxCell>
        <mxCell id="wt0K1hmHgsjhLcT-p73o-73" value="" style="endArrow=none;html=1;rounded=0;fontSize=10;exitX=0.5;exitY=1;exitDx=0;exitDy=0;entryX=0.193;entryY=0.004;entryDx=0;entryDy=0;entryPerimeter=0;" parent="1" source="wt0K1hmHgsjhLcT-p73o-64" edge="1">
          <mxGeometry width="50" height="50" relative="1" as="geometry">
            <mxPoint x="-156.83999999999997" y="309.43999999999994" as="sourcePoint" />
            <mxPoint x="-152.21999999999986" y="398.65999999999997" as="targetPoint" />
          </mxGeometry>
        </mxCell>
        <mxCell id="wt0K1hmHgsjhLcT-p73o-74" value="" style="endArrow=none;html=1;rounded=0;fontSize=10;exitX=0.5;exitY=1;exitDx=0;exitDy=0;entryX=0.305;entryY=0.004;entryDx=0;entryDy=0;entryPerimeter=0;" parent="1" source="wt0K1hmHgsjhLcT-p73o-65" edge="1">
          <mxGeometry width="50" height="50" relative="1" as="geometry">
            <mxPoint x="-146.83999999999997" y="319.43999999999994" as="sourcePoint" />
            <mxPoint x="-141.02000000000004" y="398.65999999999997" as="targetPoint" />
          </mxGeometry>
        </mxCell>
        <mxCell id="wt0K1hmHgsjhLcT-p73o-75" value="" style="endArrow=none;html=1;rounded=0;fontSize=10;exitX=0.5;exitY=1;exitDx=0;exitDy=0;entryX=0.449;entryY=0.009;entryDx=0;entryDy=0;entryPerimeter=0;" parent="1" source="wt0K1hmHgsjhLcT-p73o-68" edge="1">
          <mxGeometry width="50" height="50" relative="1" as="geometry">
            <mxPoint x="-130.83999999999997" y="343.43999999999994" as="sourcePoint" />
            <mxPoint x="-126.62000000000018" y="398.9599999999999" as="targetPoint" />
          </mxGeometry>
        </mxCell>
        <mxCell id="wt0K1hmHgsjhLcT-p73o-76" value="" style="endArrow=none;html=1;rounded=0;fontSize=10;exitX=0.5;exitY=1;exitDx=0;exitDy=0;entryX=0.586;entryY=0.009;entryDx=0;entryDy=0;entryPerimeter=0;dashed=1;" parent="1" source="wt0K1hmHgsjhLcT-p73o-70" edge="1">
          <mxGeometry width="50" height="50" relative="1" as="geometry">
            <mxPoint x="-116.83999999999997" y="354.43999999999994" as="sourcePoint" />
            <mxPoint x="-112.92000000000013" y="398.9599999999999" as="targetPoint" />
          </mxGeometry>
        </mxCell>
        <mxCell id="wt0K1hmHgsjhLcT-p73o-84" value="idRepresentación" style="text;html=1;strokeColor=none;fillColor=none;align=left;verticalAlign=middle;whiteSpace=wrap;rounded=0;fontSize=9;" parent="1" vertex="1">
          <mxGeometry x="-92.25000000000006" y="365.68999999999994" width="75" height="12.5" as="geometry" />
        </mxCell>
        <mxCell id="wt0K1hmHgsjhLcT-p73o-85" value="" style="ellipse;whiteSpace=wrap;html=1;aspect=fixed;fillColor=#CCCCCC;strokeColor=#000000;fontColor=#000000;" parent="1" vertex="1">
          <mxGeometry x="-103.6499999999997" y="366.68999999999994" width="11" height="11" as="geometry" />
        </mxCell>
        <mxCell id="wt0K1hmHgsjhLcT-p73o-86" value="" style="endArrow=none;html=1;rounded=0;fontSize=10;exitX=0.5;exitY=1;exitDx=0;exitDy=0;entryX=0.73;entryY=0.009;entryDx=0;entryDy=0;entryPerimeter=0;" parent="1" source="wt0K1hmHgsjhLcT-p73o-85" edge="1">
          <mxGeometry width="50" height="50" relative="1" as="geometry">
            <mxPoint x="-101.83999999999997" y="371.43999999999994" as="sourcePoint" />
            <mxPoint x="-98.52000000000004" y="398.9599999999999" as="targetPoint" />
          </mxGeometry>
        </mxCell>
        <mxCell id="wecATSCT4VCs9piwyTyY-34" style="edgeStyle=orthogonalEdgeStyle;rounded=0;orthogonalLoop=1;jettySize=auto;html=1;exitX=0.5;exitY=0;exitDx=0;exitDy=0;exitPerimeter=0;entryX=0.5;entryY=1;entryDx=0;entryDy=0;" edge="1" parent="1" source="wt0K1hmHgsjhLcT-p73o-87">
          <mxGeometry relative="1" as="geometry">
            <mxPoint x="265.1199999999999" y="940" as="targetPoint" />
          </mxGeometry>
        </mxCell>
        <mxCell id="wt0K1hmHgsjhLcT-p73o-87" value="Tipo Representación General" style="whiteSpace=wrap;html=1;align=center;points=[[0,0,0,0,0],[0,0.25,0,0,0],[0,0.5,0,0,0],[0,0.75,0,0,0],[0,1,0,0,0],[0.12,0,0,0,0],[0.25,0,0,0,0],[0.25,1,0,0,0],[0.38,0,0,0,0],[0.5,0,0,0,0],[0.5,1,0,0,0],[0.63,0,0,0,0],[0.75,0,0,0,0],[0.75,1,0,0,0],[0.88,0,0,0,0],[1,0,0,0,0],[1,0.25,0,0,0],[1,0.5,0,0,0],[1,0.75,0,0,0],[1,1,0,0,0]];" parent="1" vertex="1">
          <mxGeometry x="215.45999999999998" y="1031.9600000000003" width="100" height="60" as="geometry" />
        </mxCell>
        <mxCell id="wt0K1hmHgsjhLcT-p73o-118" value="(1,N)" style="text;html=1;strokeColor=none;fillColor=none;align=left;verticalAlign=middle;whiteSpace=wrap;rounded=0;fontSize=9;" parent="1" vertex="1">
          <mxGeometry x="-196.04999999999995" y="398.75000000000006" width="25.5" height="12.5" as="geometry" />
        </mxCell>
        <mxCell id="wt0K1hmHgsjhLcT-p73o-119" value="(1,1)" style="text;html=1;strokeColor=none;fillColor=none;align=left;verticalAlign=middle;whiteSpace=wrap;rounded=0;fontSize=9;" parent="1" vertex="1">
          <mxGeometry x="-380.29999999999995" y="282" width="25.5" height="12.5" as="geometry" />
        </mxCell>
        <mxCell id="wt0K1hmHgsjhLcT-p73o-120" value="(1,1)" style="text;html=1;strokeColor=none;fillColor=none;align=left;verticalAlign=middle;whiteSpace=wrap;rounded=0;fontSize=9;" parent="1" vertex="1">
          <mxGeometry x="-142.48000000000002" y="733.3500000000001" width="25.5" height="12.5" as="geometry" />
        </mxCell>
        <mxCell id="wt0K1hmHgsjhLcT-p73o-169" value="Tipo Representación Gobierno" style="whiteSpace=wrap;html=1;align=center;points=[[0,0,0,0,0],[0,0.25,0,0,0],[0,0.5,0,0,0],[0,0.75,0,0,0],[0,1,0,0,0],[0.12,0,0,0,0],[0.25,0,0,0,0],[0.25,1,0,0,0],[0.38,0,0,0,0],[0.5,0,0,0,0],[0.5,1,0,0,0],[0.63,0,0,0,0],[0.75,0,0,0,0],[0.75,1,0,0,0],[0.88,0,0,0,0],[1,0,0,0,0],[1,0.25,0,0,0],[1,0.5,0,0,0],[1,0.75,0,0,0],[1,1,0,0,0]];" parent="1" vertex="1">
          <mxGeometry x="-393.0699999999999" y="523.31" width="100" height="60" as="geometry" />
        </mxCell>
        <mxCell id="wt0K1hmHgsjhLcT-p73o-170" value="nombre" style="text;html=1;strokeColor=none;fillColor=none;align=left;verticalAlign=middle;whiteSpace=wrap;rounded=0;fontSize=9;" parent="1" vertex="1">
          <mxGeometry x="-368.23999999999995" y="485.0399999999999" width="37.5" height="12.5" as="geometry" />
        </mxCell>
        <mxCell id="wt0K1hmHgsjhLcT-p73o-171" value="" style="endArrow=none;html=1;rounded=0;fontSize=11;entryX=0.5;entryY=1;entryDx=0;entryDy=0;exitX=0;exitY=0;exitDx=0;exitDy=0;" parent="1" target="wt0K1hmHgsjhLcT-p73o-175" edge="1">
          <mxGeometry width="50" height="50" relative="1" as="geometry">
            <mxPoint x="-387.21" y="523.31" as="sourcePoint" />
            <mxPoint x="-295.0699999999999" y="411.25" as="targetPoint" />
          </mxGeometry>
        </mxCell>
        <mxCell id="wt0K1hmHgsjhLcT-p73o-172" value="id" style="text;html=1;strokeColor=none;fillColor=none;align=left;verticalAlign=middle;whiteSpace=wrap;rounded=0;fontSize=9;" parent="1" vertex="1">
          <mxGeometry x="-377.33" y="471.1900000000001" width="70.5" height="12.5" as="geometry" />
        </mxCell>
        <mxCell id="wt0K1hmHgsjhLcT-p73o-173" value="" style="endArrow=none;html=1;rounded=0;fontSize=10;fontColor=#000000;strokeColor=#000000;exitX=0.12;exitY=0;exitDx=0;exitDy=0;entryX=0.5;entryY=1;entryDx=0;entryDy=0;exitPerimeter=0;" parent="1" target="wt0K1hmHgsjhLcT-p73o-174" edge="1">
          <mxGeometry width="50" height="50" relative="1" as="geometry">
            <mxPoint x="-375.21" y="523.31" as="sourcePoint" />
            <mxPoint x="-295.0699999999999" y="424.25" as="targetPoint" />
          </mxGeometry>
        </mxCell>
        <mxCell id="wt0K1hmHgsjhLcT-p73o-174" value="" style="ellipse;whiteSpace=wrap;html=1;aspect=fixed;fillColor=#FFFFFF;strokeColor=#000000;fontColor=#000000;" parent="1" vertex="1">
          <mxGeometry x="-380.40000000000003" y="486.5399999999999" width="11" height="11" as="geometry" />
        </mxCell>
        <mxCell id="wt0K1hmHgsjhLcT-p73o-175" value="" style="ellipse;whiteSpace=wrap;html=1;aspect=fixed;fillColor=#000000;strokeColor=#000000;fontColor=#000000;" parent="1" vertex="1">
          <mxGeometry x="-393.0699999999999" y="471.43" width="11" height="11" as="geometry" />
        </mxCell>
        <mxCell id="wt0K1hmHgsjhLcT-p73o-222" style="edgeStyle=orthogonalEdgeStyle;rounded=0;orthogonalLoop=1;jettySize=auto;html=1;exitX=0;exitY=0.5;exitDx=0;exitDy=0;entryX=1;entryY=0.5;entryDx=0;entryDy=0;entryPerimeter=0;" parent="1" source="wt0K1hmHgsjhLcT-p73o-176" target="wt0K1hmHgsjhLcT-p73o-169" edge="1">
          <mxGeometry relative="1" as="geometry" />
        </mxCell>
        <mxCell id="wecATSCT4VCs9piwyTyY-53" style="edgeStyle=orthogonalEdgeStyle;rounded=0;orthogonalLoop=1;jettySize=auto;html=1;exitX=1;exitY=0.5;exitDx=0;exitDy=0;entryX=0.175;entryY=0.969;entryDx=0;entryDy=0;entryPerimeter=0;" edge="1" parent="1" source="wt0K1hmHgsjhLcT-p73o-176" target="MmX11wm5HvuTR1FrTXqp-347">
          <mxGeometry relative="1" as="geometry" />
        </mxCell>
        <mxCell id="wt0K1hmHgsjhLcT-p73o-176" value="&lt;font style=&quot;font-size: 7px;&quot;&gt;&amp;nbsp; &amp;nbsp; &amp;nbsp; TipRG-MiEq&lt;/font&gt;" style="shape=rhombus;perimeter=rhombusPerimeter;whiteSpace=wrap;html=1;align=left;fontStyle=1;fontSize=10;" parent="1" vertex="1">
          <mxGeometry x="-241.79999999999995" y="524.06" width="60" height="60" as="geometry" />
        </mxCell>
        <mxCell id="wt0K1hmHgsjhLcT-p73o-177" value="1:N" style="text;html=1;strokeColor=none;fillColor=none;align=center;verticalAlign=middle;whiteSpace=wrap;rounded=0;fontSize=15;fontStyle=1;" parent="1" vertex="1">
          <mxGeometry x="-223.01" y="502.18" width="22.43" height="20" as="geometry" />
        </mxCell>
        <mxCell id="wt0K1hmHgsjhLcT-p73o-179" value="ID" style="text;html=1;strokeColor=none;fillColor=none;align=center;verticalAlign=middle;whiteSpace=wrap;rounded=0;fontSize=8;fontStyle=1;" parent="1" vertex="1">
          <mxGeometry x="-240.09000000000003" y="544.1800000000001" width="12.43" height="20" as="geometry" />
        </mxCell>
        <mxCell id="wt0K1hmHgsjhLcT-p73o-180" value="" style="endArrow=none;html=1;rounded=0;exitX=0;exitY=0;exitDx=0;exitDy=0;entryX=0;entryY=1;entryDx=0;entryDy=0;" parent="1" edge="1">
          <mxGeometry width="50" height="50" relative="1" as="geometry">
            <mxPoint x="-227.64" y="539.51" as="sourcePoint" />
            <mxPoint x="-227.64" y="569.51" as="targetPoint" />
          </mxGeometry>
        </mxCell>
        <mxCell id="wt0K1hmHgsjhLcT-p73o-194" value="&lt;h1&gt;Ct - Ju&lt;/h1&gt;Un centro podrá ser coordinado por varias Juntas a lo largo del tiempo.&lt;br&gt;&lt;br&gt;Una Junta será creada normalmente cada cierto tiempo, correspondiente al acta de constitución de la Junta realizada por el equipo de gobierno. No podrá haber más de una junta coordinando a un centro entre las mismas fechas.&lt;br&gt;&lt;p&gt;Una Junta no podrá ser creada si no existe&amp;nbsp; un miembro del equipo de gobierno en el centro de la Junta con representación de director y otro de secretario, ya que son los miembros natos de la Junta. (controlar en lógica de negocio)&lt;/p&gt;" style="text;html=1;strokeColor=none;fillColor=none;spacing=5;spacingTop=-20;whiteSpace=wrap;overflow=hidden;rounded=0;fontStyle=2;" parent="1" vertex="1">
          <mxGeometry x="-830.0000000000001" y="700.4300000000001" width="244.94" height="290" as="geometry" />
        </mxCell>
        <mxCell id="G0A-RFpU1yBWGsKyXfba-45" style="edgeStyle=orthogonalEdgeStyle;rounded=0;orthogonalLoop=1;jettySize=auto;html=1;exitX=0.5;exitY=0;exitDx=0;exitDy=0;entryX=0.5;entryY=1;entryDx=0;entryDy=0;" parent="1" source="wt0K1hmHgsjhLcT-p73o-213" target="MmX11wm5HvuTR1FrTXqp-347" edge="1">
          <mxGeometry relative="1" as="geometry" />
        </mxCell>
        <mxCell id="wt0K1hmHgsjhLcT-p73o-213" value="Usu-MiGob" style="shape=rhombus;perimeter=rhombusPerimeter;whiteSpace=wrap;html=1;align=center;fontStyle=1;fontSize=10;" parent="1" vertex="1">
          <mxGeometry x="-142.48000000000016" y="582.9699999999999" width="60" height="60" as="geometry" />
        </mxCell>
        <mxCell id="G0A-RFpU1yBWGsKyXfba-37" style="edgeStyle=orthogonalEdgeStyle;rounded=0;orthogonalLoop=1;jettySize=auto;html=1;exitX=0.5;exitY=1;exitDx=0;exitDy=0;entryX=0.559;entryY=0.032;entryDx=0;entryDy=0;entryPerimeter=0;" parent="1" source="wt0K1hmHgsjhLcT-p73o-214" target="MmX11wm5HvuTR1FrTXqp-397" edge="1">
          <mxGeometry relative="1" as="geometry" />
        </mxCell>
        <mxCell id="wt0K1hmHgsjhLcT-p73o-214" value="ID" style="text;html=1;strokeColor=none;fillColor=none;align=center;verticalAlign=middle;whiteSpace=wrap;rounded=0;fontSize=8;fontStyle=1;" parent="1" vertex="1">
          <mxGeometry x="-118.70000000000019" y="622.9699999999999" width="12.43" height="20" as="geometry" />
        </mxCell>
        <mxCell id="wt0K1hmHgsjhLcT-p73o-215" value="" style="endArrow=none;html=1;rounded=0;exitX=1;exitY=0;exitDx=0;exitDy=0;entryX=0;entryY=0;entryDx=0;entryDy=0;" parent="1" edge="1">
          <mxGeometry width="50" height="50" relative="1" as="geometry">
            <mxPoint x="-97.48000000000016" y="627.9699999999999" as="sourcePoint" />
            <mxPoint x="-127.48000000000016" y="627.9699999999999" as="targetPoint" />
          </mxGeometry>
        </mxCell>
        <mxCell id="wt0K1hmHgsjhLcT-p73o-230" value="" style="ellipse;whiteSpace=wrap;html=1;aspect=fixed;fillColor=#FFFFFF;strokeColor=#000000;fontColor=#000000;" parent="1" vertex="1">
          <mxGeometry x="556.4900000000002" y="819.9300000000001" width="11" height="11" as="geometry" />
        </mxCell>
        <mxCell id="wt0K1hmHgsjhLcT-p73o-231" value="actaPDF" style="text;html=1;strokeColor=none;fillColor=none;align=left;verticalAlign=middle;whiteSpace=wrap;rounded=0;fontSize=9;" parent="1" vertex="1">
          <mxGeometry x="540.24" y="832.8700000000003" width="33.33" height="12.5" as="geometry" />
        </mxCell>
        <mxCell id="wt0K1hmHgsjhLcT-p73o-232" style="edgeStyle=none;rounded=0;orthogonalLoop=1;jettySize=auto;html=1;exitX=0.5;exitY=0;exitDx=0;exitDy=0;endArrow=none;endFill=0;entryX=0.106;entryY=1.003;entryDx=0;entryDy=0;entryPerimeter=0;" parent="1" source="wt0K1hmHgsjhLcT-p73o-230" target="MmX11wm5HvuTR1FrTXqp-278" edge="1">
          <mxGeometry relative="1" as="geometry">
            <mxPoint x="603.4900000000002" y="820.25" as="targetPoint" />
            <mxPoint x="603.54" y="830.8000000000002" as="sourcePoint" />
          </mxGeometry>
        </mxCell>
        <mxCell id="wecATSCT4VCs9piwyTyY-26" style="edgeStyle=orthogonalEdgeStyle;rounded=0;orthogonalLoop=1;jettySize=auto;html=1;exitX=0.5;exitY=0;exitDx=0;exitDy=0;exitPerimeter=0;entryX=0.5;entryY=1;entryDx=0;entryDy=0;" edge="1" parent="1" source="XBJ8q-S12vVFv1pdDJ5v-1" target="wecATSCT4VCs9piwyTyY-22">
          <mxGeometry relative="1" as="geometry" />
        </mxCell>
        <mxCell id="XBJ8q-S12vVFv1pdDJ5v-1" value="Tipo Centro" style="whiteSpace=wrap;html=1;align=center;points=[[0,0,0,0,0],[0,0.25,0,0,0],[0,0.5,0,0,0],[0,0.75,0,0,0],[0,1,0,0,0],[0.12,0,0,0,0],[0.25,0,0,0,0],[0.25,1,0,0,0],[0.38,0,0,0,0],[0.5,0,0,0,0],[0.5,1,0,0,0],[0.63,0,0,0,0],[0.75,0,0,0,0],[0.75,1,0,0,0],[0.88,0,0,0,0],[1,0,0,0,0],[1,0.25,0,0,0],[1,0.5,0,0,0],[1,0.75,0,0,0],[1,1,0,0,0]];" parent="1" vertex="1">
          <mxGeometry x="-792.8799999999999" y="497.24" width="100" height="60" as="geometry" />
        </mxCell>
        <mxCell id="XBJ8q-S12vVFv1pdDJ5v-2" value="nombre" style="text;html=1;strokeColor=none;fillColor=none;align=left;verticalAlign=middle;whiteSpace=wrap;rounded=0;fontSize=9;" parent="1" vertex="1">
          <mxGeometry x="-867.5" y="512.75" width="37.5" height="12.5" as="geometry" />
        </mxCell>
        <mxCell id="XBJ8q-S12vVFv1pdDJ5v-3" value="" style="endArrow=none;html=1;rounded=0;fontSize=11;entryX=1;entryY=0.5;entryDx=0;entryDy=0;exitX=-0.002;exitY=0.086;exitDx=0;exitDy=0;exitPerimeter=0;" parent="1" target="XBJ8q-S12vVFv1pdDJ5v-7" edge="1" source="XBJ8q-S12vVFv1pdDJ5v-1">
          <mxGeometry width="50" height="50" relative="1" as="geometry">
            <mxPoint x="-787.02" y="497.24" as="sourcePoint" />
            <mxPoint x="-694.8799999999999" y="385.18000000000006" as="targetPoint" />
          </mxGeometry>
        </mxCell>
        <mxCell id="XBJ8q-S12vVFv1pdDJ5v-4" value="id" style="text;html=1;strokeColor=none;fillColor=none;align=left;verticalAlign=middle;whiteSpace=wrap;rounded=0;fontSize=9;" parent="1" vertex="1">
          <mxGeometry x="-842.7300000000001" y="497.2400000000001" width="70.5" height="12.5" as="geometry" />
        </mxCell>
        <mxCell id="XBJ8q-S12vVFv1pdDJ5v-5" value="" style="endArrow=none;html=1;rounded=0;fontSize=10;fontColor=#000000;strokeColor=#000000;exitX=-0.001;exitY=0.368;exitDx=0;exitDy=0;entryX=1;entryY=0.5;entryDx=0;entryDy=0;exitPerimeter=0;" parent="1" target="XBJ8q-S12vVFv1pdDJ5v-6" edge="1" source="XBJ8q-S12vVFv1pdDJ5v-1">
          <mxGeometry width="50" height="50" relative="1" as="geometry">
            <mxPoint x="-775.02" y="497.24" as="sourcePoint" />
            <mxPoint x="-694.8799999999999" y="398.18000000000006" as="targetPoint" />
          </mxGeometry>
        </mxCell>
        <mxCell id="XBJ8q-S12vVFv1pdDJ5v-6" value="" style="ellipse;whiteSpace=wrap;html=1;aspect=fixed;fillColor=#FFFFFF;strokeColor=#000000;fontColor=#000000;" parent="1" vertex="1">
          <mxGeometry x="-829.98" y="513.5" width="11" height="11" as="geometry" />
        </mxCell>
        <mxCell id="XBJ8q-S12vVFv1pdDJ5v-7" value="" style="ellipse;whiteSpace=wrap;html=1;aspect=fixed;fillColor=#000000;strokeColor=#000000;fontColor=#000000;" parent="1" vertex="1">
          <mxGeometry x="-829.9999999999999" y="497.24" width="11" height="11" as="geometry" />
        </mxCell>
        <mxCell id="nRg5Bw-d5btuzyKWFaWI-1" value="(1,1)" style="text;html=1;strokeColor=none;fillColor=none;align=left;verticalAlign=middle;whiteSpace=wrap;rounded=0;fontSize=9;" parent="1" vertex="1">
          <mxGeometry x="-738.39" y="481.66999999999996" width="22.5" height="12.5" as="geometry" />
        </mxCell>
        <mxCell id="nRg5Bw-d5btuzyKWFaWI-5" value="(1,1)" style="text;html=1;strokeColor=none;fillColor=none;align=left;verticalAlign=middle;whiteSpace=wrap;rounded=0;fontSize=9;" parent="1" vertex="1">
          <mxGeometry x="-283.5299999999999" y="554.31" width="22.5" height="12.5" as="geometry" />
        </mxCell>
        <mxCell id="nRg5Bw-d5btuzyKWFaWI-6" value="tiene" style="text;html=1;strokeColor=none;fillColor=none;align=left;verticalAlign=middle;whiteSpace=wrap;rounded=0;fontSize=9;" parent="1" vertex="1">
          <mxGeometry x="-281.5299999999999" y="540.01" width="50" height="12.5" as="geometry" />
        </mxCell>
        <mxCell id="wecATSCT4VCs9piwyTyY-25" style="edgeStyle=orthogonalEdgeStyle;rounded=0;orthogonalLoop=1;jettySize=auto;html=1;exitX=0.5;exitY=1;exitDx=0;exitDy=0;entryX=0.526;entryY=0.053;entryDx=0;entryDy=0;entryPerimeter=0;" edge="1" parent="1" source="nRg5Bw-d5btuzyKWFaWI-10" target="wecATSCT4VCs9piwyTyY-21">
          <mxGeometry relative="1" as="geometry" />
        </mxCell>
        <mxCell id="nRg5Bw-d5btuzyKWFaWI-10" value="Centro" style="shape=ext;margin=3;double=1;whiteSpace=wrap;html=1;align=center;" parent="1" vertex="1">
          <mxGeometry x="-791.72" y="220.5" width="100" height="60" as="geometry" />
        </mxCell>
        <mxCell id="G0A-RFpU1yBWGsKyXfba-44" style="edgeStyle=orthogonalEdgeStyle;rounded=0;orthogonalLoop=1;jettySize=auto;html=1;exitX=0.5;exitY=1;exitDx=0;exitDy=0;" parent="1" source="Ey-6C_wnQBlg7w_FSqS6-1" target="G0A-RFpU1yBWGsKyXfba-1" edge="1">
          <mxGeometry relative="1" as="geometry" />
        </mxCell>
        <mxCell id="Ey-6C_wnQBlg7w_FSqS6-1" value="Usu-MiJu" style="shape=rhombus;perimeter=rhombusPerimeter;whiteSpace=wrap;html=1;align=center;fontStyle=1;fontSize=10;" parent="1" vertex="1">
          <mxGeometry x="-142.48000000000008" y="978.0399999999998" width="60" height="60" as="geometry" />
        </mxCell>
        <mxCell id="G0A-RFpU1yBWGsKyXfba-38" style="edgeStyle=orthogonalEdgeStyle;rounded=0;orthogonalLoop=1;jettySize=auto;html=1;exitX=0.5;exitY=0;exitDx=0;exitDy=0;entryX=0.546;entryY=1.003;entryDx=0;entryDy=0;entryPerimeter=0;" parent="1" source="Ey-6C_wnQBlg7w_FSqS6-2" target="MmX11wm5HvuTR1FrTXqp-397" edge="1">
          <mxGeometry relative="1" as="geometry" />
        </mxCell>
        <mxCell id="Ey-6C_wnQBlg7w_FSqS6-2" value="ID" style="text;html=1;strokeColor=none;fillColor=none;align=center;verticalAlign=middle;whiteSpace=wrap;rounded=0;fontSize=8;fontStyle=1;" parent="1" vertex="1">
          <mxGeometry x="-118.7000000000001" y="978.0399999999998" width="12.43" height="20" as="geometry" />
        </mxCell>
        <mxCell id="Ey-6C_wnQBlg7w_FSqS6-3" value="" style="endArrow=none;html=1;rounded=0;exitX=1;exitY=0;exitDx=0;exitDy=0;entryX=0;entryY=0;entryDx=0;entryDy=0;" parent="1" edge="1">
          <mxGeometry width="50" height="50" relative="1" as="geometry">
            <mxPoint x="-97.48000000000019" y="993.0399999999998" as="sourcePoint" />
            <mxPoint x="-127.48000000000019" y="993.0399999999998" as="targetPoint" />
          </mxGeometry>
        </mxCell>
        <mxCell id="Ey-6C_wnQBlg7w_FSqS6-4" value="1:N" style="text;html=1;strokeColor=none;fillColor=none;align=center;verticalAlign=middle;whiteSpace=wrap;rounded=0;fontSize=15;fontStyle=1;rotation=-90;" parent="1" vertex="1">
          <mxGeometry x="-167.4800000000002" y="601.5299999999997" width="22.43" height="20" as="geometry" />
        </mxCell>
        <mxCell id="Ey-6C_wnQBlg7w_FSqS6-13" value="es_un" style="text;html=1;strokeColor=none;fillColor=none;align=left;verticalAlign=middle;whiteSpace=wrap;rounded=0;fontSize=9;" parent="1" vertex="1">
          <mxGeometry x="-145.95000000000005" y="719.2699999999999" width="50" height="12.5" as="geometry" />
        </mxCell>
        <mxCell id="Ey-6C_wnQBlg7w_FSqS6-16" value="es_representada" style="text;html=1;strokeColor=none;fillColor=none;align=left;verticalAlign=middle;whiteSpace=wrap;rounded=0;fontSize=9;" parent="1" vertex="1">
          <mxGeometry x="-243.79999999999984" y="413.21000000000004" width="50" height="12.5" as="geometry" />
        </mxCell>
        <mxCell id="Ey-6C_wnQBlg7w_FSqS6-17" value="representa" style="text;html=1;strokeColor=none;fillColor=none;align=left;verticalAlign=middle;whiteSpace=wrap;rounded=0;fontSize=9;" parent="1" vertex="1">
          <mxGeometry x="-382.01999999999987" y="293.5" width="50" height="12.5" as="geometry" />
        </mxCell>
        <mxCell id="Ey-6C_wnQBlg7w_FSqS6-25" style="edgeStyle=orthogonalEdgeStyle;rounded=0;orthogonalLoop=1;jettySize=auto;html=1;exitX=0;exitY=0.5;exitDx=0;exitDy=0;entryX=1;entryY=0.25;entryDx=0;entryDy=0;strokeColor=default;endArrow=none;endFill=0;" parent="1" source="yooLV80YAIJDi9W8emZc-66" target="yooLV80YAIJDi9W8emZc-2" edge="1">
          <mxGeometry relative="1" as="geometry">
            <mxPoint x="368.0999999999999" y="757.55" as="sourcePoint" />
            <mxPoint x="334.0999999999999" y="757.55" as="targetPoint" />
          </mxGeometry>
        </mxCell>
        <mxCell id="Ey-6C_wnQBlg7w_FSqS6-26" style="edgeStyle=orthogonalEdgeStyle;rounded=0;orthogonalLoop=1;jettySize=auto;html=1;exitX=0;exitY=0.5;exitDx=0;exitDy=0;entryX=0.998;entryY=0.454;entryDx=0;entryDy=0;entryPerimeter=0;strokeColor=default;endArrow=none;endFill=0;" parent="1" source="MmX11wm5HvuTR1FrTXqp-695" target="yooLV80YAIJDi9W8emZc-2" edge="1">
          <mxGeometry relative="1" as="geometry">
            <mxPoint x="378.0999999999999" y="767.55" as="sourcePoint" />
            <mxPoint x="344.0999999999999" y="767.55" as="targetPoint" />
          </mxGeometry>
        </mxCell>
        <mxCell id="Ey-6C_wnQBlg7w_FSqS6-27" style="edgeStyle=orthogonalEdgeStyle;rounded=0;orthogonalLoop=1;jettySize=auto;html=1;exitX=0;exitY=0.5;exitDx=0;exitDy=0;entryX=1;entryY=0.668;entryDx=0;entryDy=0;entryPerimeter=0;strokeColor=default;endArrow=none;endFill=0;dashed=1;" parent="1" source="MmX11wm5HvuTR1FrTXqp-696" target="yooLV80YAIJDi9W8emZc-2" edge="1">
          <mxGeometry relative="1" as="geometry">
            <mxPoint x="388.0999999999999" y="777.55" as="sourcePoint" />
            <mxPoint x="354.0999999999999" y="777.55" as="targetPoint" />
          </mxGeometry>
        </mxCell>
        <mxCell id="Ey-6C_wnQBlg7w_FSqS6-29" value="(0,N)" style="text;html=1;strokeColor=none;fillColor=none;align=left;verticalAlign=middle;whiteSpace=wrap;rounded=0;fontSize=9;" parent="1" vertex="1">
          <mxGeometry x="234.08999999999992" y="726.3" width="25.5" height="12.5" as="geometry" />
        </mxCell>
        <mxCell id="Ey-6C_wnQBlg7w_FSqS6-30" value="es_representada" style="text;html=1;strokeColor=none;fillColor=none;align=left;verticalAlign=middle;whiteSpace=wrap;rounded=0;fontSize=9;" parent="1" vertex="1">
          <mxGeometry x="192.00000000000023" y="713.8" width="50" height="12.5" as="geometry" />
        </mxCell>
        <mxCell id="Ey-6C_wnQBlg7w_FSqS6-47" value="" style="ellipse;whiteSpace=wrap;html=1;aspect=fixed;fillColor=#FFFFFF;strokeColor=#000000;fontColor=#000000;" parent="1" vertex="1">
          <mxGeometry x="166.4999999999999" y="457.9100000000001" width="11" height="11" as="geometry" />
        </mxCell>
        <mxCell id="Ey-6C_wnQBlg7w_FSqS6-48" value="fechaDisolución" style="text;html=1;strokeColor=none;fillColor=none;align=left;verticalAlign=middle;whiteSpace=wrap;rounded=0;fontSize=9;" parent="1" vertex="1">
          <mxGeometry x="99.29000000000013" y="456.67" width="65" height="12.5" as="geometry" />
        </mxCell>
        <mxCell id="Ey-6C_wnQBlg7w_FSqS6-49" value="" style="endArrow=none;html=1;rounded=0;exitX=0.001;exitY=0.935;exitDx=0;exitDy=0;exitPerimeter=0;dashed=1;entryX=0.941;entryY=0.259;entryDx=0;entryDy=0;entryPerimeter=0;" parent="1" source="MmX11wm5HvuTR1FrTXqp-235" target="Ey-6C_wnQBlg7w_FSqS6-47" edge="1">
          <mxGeometry width="50" height="50" relative="1" as="geometry">
            <mxPoint x="324.41999999999996" y="468.7399999999999" as="sourcePoint" />
            <mxPoint x="180" y="460" as="targetPoint" />
          </mxGeometry>
        </mxCell>
        <mxCell id="Ey-6C_wnQBlg7w_FSqS6-53" value="Tipo&lt;br&gt;Convocatoria" style="whiteSpace=wrap;html=1;align=center;points=[[0,0,0,0,0],[0,0.25,0,0,0],[0,0.5,0,0,0],[0,0.75,0,0,0],[0,1,0,0,0],[0.12,0,0,0,0],[0.25,0,0,0,0],[0.25,1,0,0,0],[0.38,0,0,0,0],[0.5,0,0,0,0],[0.5,1,0,0,0],[0.63,0,0,0,0],[0.75,0,0,0,0],[0.75,1,0,0,0],[0.88,0,0,0,0],[1,0,0,0,0],[1,0.25,0,0,0],[1,0.5,0,0,0],[1,0.75,0,0,0],[1,1,0,0,0]];" parent="1" vertex="1">
          <mxGeometry x="824.5400000000002" y="671.8700000000003" width="100" height="60" as="geometry" />
        </mxCell>
        <mxCell id="Ey-6C_wnQBlg7w_FSqS6-54" value="nombre" style="text;html=1;strokeColor=none;fillColor=none;align=left;verticalAlign=middle;whiteSpace=wrap;rounded=0;fontSize=9;" parent="1" vertex="1">
          <mxGeometry x="849.3700000000001" y="633.6000000000004" width="37.5" height="12.5" as="geometry" />
        </mxCell>
        <mxCell id="Ey-6C_wnQBlg7w_FSqS6-55" value="" style="endArrow=none;html=1;rounded=0;fontSize=11;entryX=0.5;entryY=1;entryDx=0;entryDy=0;exitX=0;exitY=0;exitDx=0;exitDy=0;" parent="1" target="Ey-6C_wnQBlg7w_FSqS6-59" edge="1">
          <mxGeometry width="50" height="50" relative="1" as="geometry">
            <mxPoint x="830.3999999999999" y="671.8700000000003" as="sourcePoint" />
            <mxPoint x="922.5400000000002" y="559.8100000000004" as="targetPoint" />
          </mxGeometry>
        </mxCell>
        <mxCell id="Ey-6C_wnQBlg7w_FSqS6-56" value="id" style="text;html=1;strokeColor=none;fillColor=none;align=left;verticalAlign=middle;whiteSpace=wrap;rounded=0;fontSize=9;" parent="1" vertex="1">
          <mxGeometry x="840.28" y="619.7500000000005" width="70.5" height="12.5" as="geometry" />
        </mxCell>
        <mxCell id="Ey-6C_wnQBlg7w_FSqS6-57" value="" style="endArrow=none;html=1;rounded=0;fontSize=10;fontColor=#000000;strokeColor=#000000;exitX=0.12;exitY=0;exitDx=0;exitDy=0;entryX=0.5;entryY=1;entryDx=0;entryDy=0;exitPerimeter=0;" parent="1" target="Ey-6C_wnQBlg7w_FSqS6-58" edge="1">
          <mxGeometry width="50" height="50" relative="1" as="geometry">
            <mxPoint x="842.3999999999999" y="671.8700000000003" as="sourcePoint" />
            <mxPoint x="922.5400000000002" y="572.8100000000004" as="targetPoint" />
          </mxGeometry>
        </mxCell>
        <mxCell id="Ey-6C_wnQBlg7w_FSqS6-58" value="" style="ellipse;whiteSpace=wrap;html=1;aspect=fixed;fillColor=#FFFFFF;strokeColor=#000000;fontColor=#000000;" parent="1" vertex="1">
          <mxGeometry x="837.2100000000003" y="635.1000000000004" width="11" height="11" as="geometry" />
        </mxCell>
        <mxCell id="Ey-6C_wnQBlg7w_FSqS6-59" value="" style="ellipse;whiteSpace=wrap;html=1;aspect=fixed;fillColor=#000000;strokeColor=#000000;fontColor=#000000;" parent="1" vertex="1">
          <mxGeometry x="824.5400000000002" y="619.9900000000002" width="11" height="11" as="geometry" />
        </mxCell>
        <mxCell id="Ey-6C_wnQBlg7w_FSqS6-80" style="edgeStyle=orthogonalEdgeStyle;rounded=0;orthogonalLoop=1;jettySize=auto;html=1;exitX=1;exitY=0.5;exitDx=0;exitDy=0;entryX=-0.001;entryY=0.429;entryDx=0;entryDy=0;entryPerimeter=0;" parent="1" source="Ey-6C_wnQBlg7w_FSqS6-61" target="Ey-6C_wnQBlg7w_FSqS6-53" edge="1">
          <mxGeometry relative="1" as="geometry" />
        </mxCell>
        <mxCell id="Ey-6C_wnQBlg7w_FSqS6-61" value="&lt;font style=&quot;font-size: 7px;&quot;&gt;&amp;nbsp;Conv-TipoC&lt;/font&gt;" style="shape=rhombus;perimeter=rhombusPerimeter;whiteSpace=wrap;html=1;align=left;fontStyle=1;fontSize=10;" parent="1" vertex="1">
          <mxGeometry x="714.3700000000003" y="668.69" width="60" height="60" as="geometry" />
        </mxCell>
        <mxCell id="Ey-6C_wnQBlg7w_FSqS6-62" value="N:1" style="text;html=1;strokeColor=none;fillColor=none;align=center;verticalAlign=middle;whiteSpace=wrap;rounded=0;fontSize=15;fontStyle=1;" parent="1" vertex="1">
          <mxGeometry x="733.1600000000003" y="646.8100000000002" width="22.43" height="20" as="geometry" />
        </mxCell>
        <mxCell id="Ey-6C_wnQBlg7w_FSqS6-79" style="edgeStyle=orthogonalEdgeStyle;rounded=0;orthogonalLoop=1;jettySize=auto;html=1;entryX=0.884;entryY=-0.007;entryDx=0;entryDy=0;entryPerimeter=0;" parent="1" target="MmX11wm5HvuTR1FrTXqp-278" edge="1">
          <mxGeometry relative="1" as="geometry">
            <mxPoint x="689.5400000000004" y="669.8000000000002" as="targetPoint" />
            <mxPoint x="713.5700000000002" y="699.7400000000002" as="sourcePoint" />
          </mxGeometry>
        </mxCell>
        <mxCell id="Ey-6C_wnQBlg7w_FSqS6-63" value="ID" style="text;html=1;strokeColor=none;fillColor=none;align=center;verticalAlign=middle;whiteSpace=wrap;rounded=0;fontSize=8;fontStyle=1;" parent="1" vertex="1">
          <mxGeometry x="758.0799999999999" y="688.8100000000002" width="12.43" height="20" as="geometry" />
        </mxCell>
        <mxCell id="Ey-6C_wnQBlg7w_FSqS6-64" value="" style="endArrow=none;html=1;rounded=0;exitX=0;exitY=0;exitDx=0;exitDy=0;entryX=0;entryY=1;entryDx=0;entryDy=0;" parent="1" edge="1">
          <mxGeometry width="50" height="50" relative="1" as="geometry">
            <mxPoint x="758.54" y="683.9300000000001" as="sourcePoint" />
            <mxPoint x="758.54" y="713.9300000000001" as="targetPoint" />
          </mxGeometry>
        </mxCell>
        <mxCell id="Ey-6C_wnQBlg7w_FSqS6-67" value="(0,N)" style="text;html=1;strokeColor=none;fillColor=none;align=left;verticalAlign=middle;whiteSpace=wrap;rounded=0;fontSize=9;" parent="1" vertex="1">
          <mxGeometry x="643.2400000000002" y="711.4300000000001" width="22.5" height="12.5" as="geometry" />
        </mxCell>
        <mxCell id="Ey-6C_wnQBlg7w_FSqS6-68" value="corresponde_a" style="text;html=1;strokeColor=none;fillColor=none;align=left;verticalAlign=middle;whiteSpace=wrap;rounded=0;fontSize=9;" parent="1" vertex="1">
          <mxGeometry x="642.2400000000002" y="700.3700000000003" width="50" height="12.5" as="geometry" />
        </mxCell>
        <mxCell id="Ey-6C_wnQBlg7w_FSqS6-70" value="(1,1)" style="text;html=1;strokeColor=none;fillColor=none;align=left;verticalAlign=middle;whiteSpace=wrap;rounded=0;fontSize=9;" parent="1" vertex="1">
          <mxGeometry x="-353.27" y="253.5" width="25.5" height="12.5" as="geometry" />
        </mxCell>
        <mxCell id="Ey-6C_wnQBlg7w_FSqS6-71" value="es_gestionada" style="text;html=1;strokeColor=none;fillColor=none;align=left;verticalAlign=middle;whiteSpace=wrap;rounded=0;fontSize=9;" parent="1" vertex="1">
          <mxGeometry x="-351.77" y="268" width="55" height="12.5" as="geometry" />
        </mxCell>
        <mxCell id="Ey-6C_wnQBlg7w_FSqS6-73" value="convoca" style="text;html=1;strokeColor=none;fillColor=none;align=left;verticalAlign=middle;whiteSpace=wrap;rounded=0;fontSize=9;" parent="1" vertex="1">
          <mxGeometry x="562.9900000000002" y="717.9300000000003" width="55" height="12.5" as="geometry" />
        </mxCell>
        <mxCell id="Ey-6C_wnQBlg7w_FSqS6-74" value="(0,N)" style="text;html=1;strokeColor=none;fillColor=none;align=left;verticalAlign=middle;whiteSpace=wrap;rounded=0;fontSize=9;" parent="1" vertex="1">
          <mxGeometry x="577.0000000000005" y="729.8200000000004" width="25.5" height="12.5" as="geometry" />
        </mxCell>
        <mxCell id="Ey-6C_wnQBlg7w_FSqS6-81" value="(1,1)" style="text;html=1;strokeColor=none;fillColor=none;align=left;verticalAlign=middle;whiteSpace=wrap;rounded=0;fontSize=9;" parent="1" vertex="1">
          <mxGeometry x="794.5400000000006" y="700.4300000000003" width="25.5" height="12.5" as="geometry" />
        </mxCell>
        <mxCell id="Ey-6C_wnQBlg7w_FSqS6-83" value="tiene" style="text;html=1;strokeColor=none;fillColor=none;align=left;verticalAlign=middle;whiteSpace=wrap;rounded=0;fontSize=9;" parent="1" vertex="1">
          <mxGeometry x="793.2100000000003" y="683.3100000000004" width="50" height="12.5" as="geometry" />
        </mxCell>
        <mxCell id="Ey-6C_wnQBlg7w_FSqS6-90" value="" style="ellipse;whiteSpace=wrap;html=1;aspect=fixed;fillColor=#000000;strokeColor=#000000;fontColor=#000000;" parent="1" vertex="1">
          <mxGeometry x="275.21000000000015" y="702.8000000000001" width="11" height="11" as="geometry" />
        </mxCell>
        <mxCell id="Ey-6C_wnQBlg7w_FSqS6-91" style="edgeStyle=orthogonalEdgeStyle;rounded=0;orthogonalLoop=1;jettySize=auto;html=1;exitX=0.5;exitY=1;exitDx=0;exitDy=0;entryX=0.629;entryY=0.003;entryDx=0;entryDy=0;entryPerimeter=0;strokeColor=default;endArrow=none;endFill=0;" parent="1" source="Ey-6C_wnQBlg7w_FSqS6-90" edge="1" target="yooLV80YAIJDi9W8emZc-2">
          <mxGeometry relative="1" as="geometry">
            <mxPoint x="355.69000000000005" y="755.9299999999998" as="sourcePoint" />
            <mxPoint x="300.20000000000005" y="744.4749999999999" as="targetPoint" />
            <Array as="points" />
          </mxGeometry>
        </mxCell>
        <mxCell id="Ey-6C_wnQBlg7w_FSqS6-92" value="id" style="text;html=1;strokeColor=none;fillColor=none;align=left;verticalAlign=middle;whiteSpace=wrap;rounded=0;fontSize=9;" parent="1" vertex="1">
          <mxGeometry x="287.81000000000023" y="702.8500000000001" width="35.52" height="9.38" as="geometry" />
        </mxCell>
        <mxCell id="Ey-6C_wnQBlg7w_FSqS6-99" value="tiene" style="text;html=1;strokeColor=none;fillColor=none;align=left;verticalAlign=middle;whiteSpace=wrap;rounded=0;fontSize=9;" parent="1" vertex="1">
          <mxGeometry x="-738.39" y="469.1700000000001" width="50" height="12.5" as="geometry" />
        </mxCell>
        <mxCell id="Ey-6C_wnQBlg7w_FSqS6-100" value="(0,N)" style="text;html=1;strokeColor=none;fillColor=none;align=left;verticalAlign=middle;whiteSpace=wrap;rounded=0;fontSize=9;" parent="1" vertex="1">
          <mxGeometry x="-706.4399999999999" y="301.56" width="22.5" height="12.5" as="geometry" />
        </mxCell>
        <mxCell id="Ey-6C_wnQBlg7w_FSqS6-101" value="corresponde_a" style="text;html=1;strokeColor=none;fillColor=none;align=left;verticalAlign=middle;whiteSpace=wrap;rounded=0;fontSize=9;" parent="1" vertex="1">
          <mxGeometry x="-735.9399999999998" y="285.44" width="50" height="12.5" as="geometry" />
        </mxCell>
        <mxCell id="Ey-6C_wnQBlg7w_FSqS6-103" value="DIAGRAMA EER UCOMI" style="text;html=1;strokeColor=none;fillColor=none;align=center;verticalAlign=middle;whiteSpace=wrap;rounded=0;fontSize=60;fontStyle=1;" parent="1" vertex="1">
          <mxGeometry x="-714.46" y="81" width="1550" height="30" as="geometry" />
        </mxCell>
        <mxCell id="yRydNBiI8C4TJaOUIN50-1" value="estado" style="text;html=1;strokeColor=none;fillColor=none;align=left;verticalAlign=middle;whiteSpace=wrap;rounded=0;fontSize=9;" parent="1" vertex="1">
          <mxGeometry x="-863.48" y="529.2900000000001" width="37.5" height="12.5" as="geometry" />
        </mxCell>
        <mxCell id="yRydNBiI8C4TJaOUIN50-2" value="" style="endArrow=none;html=1;rounded=0;fontSize=10;fontColor=#000000;strokeColor=#000000;exitX=-0.009;exitY=0.634;exitDx=0;exitDy=0;exitPerimeter=0;entryX=0.996;entryY=0.409;entryDx=0;entryDy=0;entryPerimeter=0;" parent="1" source="XBJ8q-S12vVFv1pdDJ5v-1" target="yRydNBiI8C4TJaOUIN50-3" edge="1">
          <mxGeometry width="50" height="50" relative="1" as="geometry">
            <mxPoint x="-760.8900000000001" y="498.62" as="sourcePoint" />
            <mxPoint x="-800" y="536" as="targetPoint" />
          </mxGeometry>
        </mxCell>
        <mxCell id="yRydNBiI8C4TJaOUIN50-3" value="" style="ellipse;whiteSpace=wrap;html=1;aspect=fixed;fillColor=#FFFFFF;strokeColor=#000000;fontColor=#000000;" parent="1" vertex="1">
          <mxGeometry x="-829.98" y="530.7900000000001" width="11" height="11" as="geometry" />
        </mxCell>
        <mxCell id="yRydNBiI8C4TJaOUIN50-4" value="estado" style="text;html=1;strokeColor=none;fillColor=none;align=left;verticalAlign=middle;whiteSpace=wrap;rounded=0;fontSize=9;" parent="1" vertex="1">
          <mxGeometry x="-733.15" y="195.6" width="31.15" height="12.5" as="geometry" />
        </mxCell>
        <mxCell id="yRydNBiI8C4TJaOUIN50-5" value="" style="ellipse;whiteSpace=wrap;html=1;aspect=fixed;fillColor=#FFFFFF;strokeColor=#000000;fontColor=#000000;" parent="1" vertex="1">
          <mxGeometry x="-746.1499999999999" y="197.1" width="11" height="11" as="geometry" />
        </mxCell>
        <mxCell id="yRydNBiI8C4TJaOUIN50-6" value="" style="endArrow=none;html=1;rounded=0;fontSize=11;entryX=0.5;entryY=1;entryDx=0;entryDy=0;exitX=0.514;exitY=-0.007;exitDx=0;exitDy=0;exitPerimeter=0;" parent="1" source="nRg5Bw-d5btuzyKWFaWI-10" target="yRydNBiI8C4TJaOUIN50-5" edge="1">
          <mxGeometry width="50" height="50" relative="1" as="geometry">
            <mxPoint x="-743.3900000000001" y="230.50000000000006" as="sourcePoint" />
            <mxPoint x="-743" y="204" as="targetPoint" />
          </mxGeometry>
        </mxCell>
        <mxCell id="yRydNBiI8C4TJaOUIN50-7" value="estado" style="text;html=1;strokeColor=none;fillColor=none;align=left;verticalAlign=middle;whiteSpace=wrap;rounded=0;fontSize=9;" parent="1" vertex="1">
          <mxGeometry x="-383.2800000000001" y="196.69" width="75" height="12.5" as="geometry" />
        </mxCell>
        <mxCell id="yRydNBiI8C4TJaOUIN50-8" value="" style="endArrow=none;html=1;rounded=0;fontSize=10;entryX=0.628;entryY=-0.001;entryDx=0;entryDy=0;exitX=0.5;exitY=1;exitDx=0;exitDy=0;entryPerimeter=0;" parent="1" source="yRydNBiI8C4TJaOUIN50-9" target="MmX11wm5HvuTR1FrTXqp-2" edge="1">
          <mxGeometry width="50" height="50" relative="1" as="geometry">
            <mxPoint x="-350.78" y="127.75" as="sourcePoint" />
            <mxPoint x="-390.78999999999996" y="228.25" as="targetPoint" />
          </mxGeometry>
        </mxCell>
        <mxCell id="yRydNBiI8C4TJaOUIN50-9" value="" style="ellipse;whiteSpace=wrap;html=1;aspect=fixed;fillColor=#FFFFFF;strokeColor=#000000;fontColor=#000000;" parent="1" vertex="1">
          <mxGeometry x="-396.27999999999975" y="199" width="11" height="11" as="geometry" />
        </mxCell>
        <mxCell id="yRydNBiI8C4TJaOUIN50-10" value="estado" style="text;html=1;strokeColor=none;fillColor=none;align=left;verticalAlign=middle;whiteSpace=wrap;rounded=0;fontSize=9;" parent="1" vertex="1">
          <mxGeometry x="-354.74999999999994" y="497.9199999999999" width="37.5" height="12.5" as="geometry" />
        </mxCell>
        <mxCell id="yRydNBiI8C4TJaOUIN50-11" value="" style="endArrow=none;html=1;rounded=0;fontSize=10;fontColor=#000000;strokeColor=#000000;exitX=0.317;exitY=-0.004;exitDx=0;exitDy=0;entryX=0.5;entryY=1;entryDx=0;entryDy=0;exitPerimeter=0;" parent="1" source="wt0K1hmHgsjhLcT-p73o-169" target="yRydNBiI8C4TJaOUIN50-12" edge="1">
          <mxGeometry width="50" height="50" relative="1" as="geometry">
            <mxPoint x="-361.71999999999997" y="536.1899999999998" as="sourcePoint" />
            <mxPoint x="-281.57999999999987" y="437.13" as="targetPoint" />
          </mxGeometry>
        </mxCell>
        <mxCell id="yRydNBiI8C4TJaOUIN50-12" value="" style="ellipse;whiteSpace=wrap;html=1;aspect=fixed;fillColor=#FFFFFF;strokeColor=#000000;fontColor=#000000;" parent="1" vertex="1">
          <mxGeometry x="-366.91" y="499.4199999999999" width="11" height="11" as="geometry" />
        </mxCell>
        <mxCell id="yRydNBiI8C4TJaOUIN50-16" value="estado" style="text;html=1;strokeColor=none;fillColor=none;align=left;verticalAlign=middle;whiteSpace=wrap;rounded=0;fontSize=9;" parent="1" vertex="1">
          <mxGeometry x="-73.59000000000009" y="377.8800000000001" width="75" height="12.5" as="geometry" />
        </mxCell>
        <mxCell id="yRydNBiI8C4TJaOUIN50-17" value="" style="ellipse;whiteSpace=wrap;html=1;aspect=fixed;fillColor=#FFFFFF;strokeColor=#000000;fontColor=#000000;" parent="1" vertex="1">
          <mxGeometry x="-86.58999999999975" y="379.19000000000005" width="11" height="11" as="geometry" />
        </mxCell>
        <mxCell id="yRydNBiI8C4TJaOUIN50-18" value="" style="endArrow=none;html=1;rounded=0;fontSize=10;exitX=0.5;exitY=1;exitDx=0;exitDy=0;entryX=0.806;entryY=0.005;entryDx=0;entryDy=0;entryPerimeter=0;" parent="1" source="yRydNBiI8C4TJaOUIN50-17" target="MmX11wm5HvuTR1FrTXqp-347" edge="1">
          <mxGeometry width="50" height="50" relative="1" as="geometry">
            <mxPoint x="-87.81" y="387.38" as="sourcePoint" />
            <mxPoint x="-88.52000000000004" y="408.9599999999999" as="targetPoint" />
          </mxGeometry>
        </mxCell>
        <mxCell id="yRydNBiI8C4TJaOUIN50-23" value="estado" style="text;html=1;strokeColor=none;fillColor=none;align=left;verticalAlign=middle;whiteSpace=wrap;rounded=0;fontSize=9;" parent="1" vertex="1">
          <mxGeometry x="135.4999999999999" y="469.90999999999997" width="65" height="12.5" as="geometry" />
        </mxCell>
        <mxCell id="yRydNBiI8C4TJaOUIN50-24" value="" style="endArrow=none;html=1;rounded=0;entryX=1;entryY=0;entryDx=0;entryDy=0;exitX=0.019;exitY=1.004;exitDx=0;exitDy=0;exitPerimeter=0;" parent="1" source="MmX11wm5HvuTR1FrTXqp-235" target="yRydNBiI8C4TJaOUIN50-25" edge="1">
          <mxGeometry width="50" height="50" relative="1" as="geometry">
            <mxPoint x="312.4499999999997" y="459.67999999999995" as="sourcePoint" />
            <mxPoint x="303.16999999999996" y="488" as="targetPoint" />
          </mxGeometry>
        </mxCell>
        <mxCell id="yRydNBiI8C4TJaOUIN50-25" value="" style="ellipse;whiteSpace=wrap;html=1;aspect=fixed;fillColor=#FFFFFF;strokeColor=#000000;fontColor=#000000;" parent="1" vertex="1">
          <mxGeometry x="166.75999999999965" y="470.6700000000001" width="11" height="11" as="geometry" />
        </mxCell>
        <mxCell id="yRydNBiI8C4TJaOUIN50-26" value="" style="ellipse;whiteSpace=wrap;html=1;aspect=fixed;fillColor=#FFFFFF;strokeColor=#000000;fontColor=#000000;" parent="1" vertex="1">
          <mxGeometry x="285.42000000000013" y="715.3000000000002" width="11" height="11" as="geometry" />
        </mxCell>
        <mxCell id="yRydNBiI8C4TJaOUIN50-27" value="estado" style="text;html=1;strokeColor=none;fillColor=none;align=left;verticalAlign=middle;whiteSpace=wrap;rounded=0;fontSize=9;" parent="1" vertex="1">
          <mxGeometry x="297.4200000000002" y="715.3000000000002" width="35.52" height="9.38" as="geometry" />
        </mxCell>
        <mxCell id="yRydNBiI8C4TJaOUIN50-28" style="edgeStyle=orthogonalEdgeStyle;rounded=0;orthogonalLoop=1;jettySize=auto;html=1;exitX=0.5;exitY=1;exitDx=0;exitDy=0;strokeColor=default;endArrow=none;endFill=0;" parent="1" source="yRydNBiI8C4TJaOUIN50-26" edge="1">
          <mxGeometry relative="1" as="geometry">
            <mxPoint x="310.1299999999999" y="733.49" as="sourcePoint" />
            <mxPoint x="291" y="744" as="targetPoint" />
            <Array as="points">
              <mxPoint x="290" y="726" />
              <mxPoint x="290" y="744" />
            </Array>
          </mxGeometry>
        </mxCell>
        <mxCell id="yRydNBiI8C4TJaOUIN50-29" value="estado" style="text;html=1;strokeColor=none;fillColor=none;align=left;verticalAlign=middle;whiteSpace=wrap;rounded=0;fontSize=9;" parent="1" vertex="1">
          <mxGeometry x="860.3700000000001" y="646.1000000000004" width="37.5" height="12.5" as="geometry" />
        </mxCell>
        <mxCell id="yRydNBiI8C4TJaOUIN50-30" value="" style="endArrow=none;html=1;rounded=0;fontSize=10;fontColor=#000000;strokeColor=#000000;entryX=0.5;entryY=1;entryDx=0;entryDy=0;exitX=0.294;exitY=0.002;exitDx=0;exitDy=0;exitPerimeter=0;" parent="1" source="Ey-6C_wnQBlg7w_FSqS6-53" target="yRydNBiI8C4TJaOUIN50-31" edge="1">
          <mxGeometry width="50" height="50" relative="1" as="geometry">
            <mxPoint x="853.5700000000002" y="673.7400000000002" as="sourcePoint" />
            <mxPoint x="933.5400000000002" y="585.3100000000004" as="targetPoint" />
          </mxGeometry>
        </mxCell>
        <mxCell id="yRydNBiI8C4TJaOUIN50-31" value="" style="ellipse;whiteSpace=wrap;html=1;aspect=fixed;fillColor=#FFFFFF;strokeColor=#000000;fontColor=#000000;" parent="1" vertex="1">
          <mxGeometry x="848.2100000000003" y="647.6000000000004" width="11" height="11" as="geometry" />
        </mxCell>
        <mxCell id="yRydNBiI8C4TJaOUIN50-32" value="" style="endArrow=none;html=1;rounded=0;entryX=0;entryY=0.5;entryDx=0;entryDy=0;exitX=1;exitY=0.75;exitDx=0;exitDy=0;" parent="1" target="yRydNBiI8C4TJaOUIN50-33" edge="1">
          <mxGeometry width="50" height="50" relative="1" as="geometry">
            <mxPoint x="651.5700000000002" y="808.2400000000002" as="sourcePoint" />
            <mxPoint x="641.1200000000003" y="753.5" as="targetPoint" />
          </mxGeometry>
        </mxCell>
        <mxCell id="yRydNBiI8C4TJaOUIN50-33" value="" style="ellipse;whiteSpace=wrap;html=1;aspect=fixed;fillColor=#FFFFFF;strokeColor=#000000;fontColor=#000000;" parent="1" vertex="1">
          <mxGeometry x="662.3700000000003" y="802.75" width="11" height="11" as="geometry" />
        </mxCell>
        <mxCell id="yRydNBiI8C4TJaOUIN50-34" value="estado" style="text;html=1;strokeColor=none;fillColor=none;align=left;verticalAlign=middle;whiteSpace=wrap;rounded=0;fontSize=9;" parent="1" vertex="1">
          <mxGeometry x="673.3699999999999" y="802.25" width="65" height="12.5" as="geometry" />
        </mxCell>
        <mxCell id="UR6xj8lAwe7mgBuUPSRM-10" value="(1,1)" style="text;html=1;strokeColor=none;fillColor=none;align=left;verticalAlign=middle;whiteSpace=wrap;rounded=0;fontSize=9;" parent="1" vertex="1">
          <mxGeometry x="-465.93999999999994" y="281" width="22.5" height="12.5" as="geometry" />
        </mxCell>
        <mxCell id="UR6xj8lAwe7mgBuUPSRM-12" value="representa" style="text;html=1;strokeColor=none;fillColor=none;align=left;verticalAlign=middle;whiteSpace=wrap;rounded=0;fontSize=9;" parent="1" vertex="1">
          <mxGeometry x="-483.2299999999999" y="294.5" width="50" height="12.5" as="geometry" />
        </mxCell>
        <mxCell id="NSej-nHTsgWwxNNao5oT-1" value="" style="ellipse;whiteSpace=wrap;html=1;aspect=fixed;fillColor=#FFFFFF;strokeColor=#000000;fontColor=#000000;direction=east;" parent="1" vertex="1">
          <mxGeometry x="-192.79999999999998" y="796.6599999999999" width="11" height="11" as="geometry" />
        </mxCell>
        <mxCell id="NSej-nHTsgWwxNNao5oT-3" value="" style="endArrow=none;html=1;rounded=0;fontSize=10;entryX=1;entryY=0.5;entryDx=0;entryDy=0;strokeColor=#000000;fontColor=#000000;exitX=0.002;exitY=0.916;exitDx=0;exitDy=0;exitPerimeter=0;" parent="1" source="MmX11wm5HvuTR1FrTXqp-397" target="NSej-nHTsgWwxNNao5oT-1" edge="1">
          <mxGeometry width="50" height="50" relative="1" as="geometry">
            <mxPoint x="-172" y="796" as="sourcePoint" />
            <mxPoint x="-121.17000000000007" y="860.72" as="targetPoint" />
          </mxGeometry>
        </mxCell>
        <mxCell id="NSej-nHTsgWwxNNao5oT-4" value="estado" style="text;html=1;strokeColor=none;fillColor=none;align=left;verticalAlign=middle;whiteSpace=wrap;rounded=0;fontSize=9;fontColor=#000000;direction=east;" parent="1" vertex="1">
          <mxGeometry x="-225.23" y="794.1600000000001" width="29.84" height="15.5" as="geometry" />
        </mxCell>
        <mxCell id="NSej-nHTsgWwxNNao5oT-10" value="" style="endArrow=none;html=1;rounded=0;exitX=0;exitY=0;exitDx=0;exitDy=0;entryX=0;entryY=1;entryDx=0;entryDy=0;" parent="1" edge="1">
          <mxGeometry width="50" height="50" relative="1" as="geometry">
            <mxPoint x="-328.27" y="398.28999999999974" as="sourcePoint" />
            <mxPoint x="-328.27" y="428.28999999999974" as="targetPoint" />
          </mxGeometry>
        </mxCell>
        <mxCell id="NSej-nHTsgWwxNNao5oT-11" value="ID" style="text;html=1;strokeColor=none;fillColor=none;align=center;verticalAlign=middle;whiteSpace=wrap;rounded=0;fontSize=8;fontStyle=1;" parent="1" vertex="1">
          <mxGeometry x="-341.23" y="403.38" width="12.43" height="20" as="geometry" />
        </mxCell>
        <mxCell id="NSej-nHTsgWwxNNao5oT-12" value="1:N" style="text;html=1;strokeColor=none;fillColor=none;align=center;verticalAlign=middle;whiteSpace=wrap;rounded=0;fontSize=15;fontStyle=1;" parent="1" vertex="1">
          <mxGeometry x="-325.24" y="360.68999999999994" width="22.43" height="20" as="geometry" />
        </mxCell>
        <mxCell id="G0A-RFpU1yBWGsKyXfba-1" value="Miembro&lt;br&gt;Junta" style="shape=ext;margin=3;double=1;whiteSpace=wrap;html=1;align=center;" parent="1" vertex="1">
          <mxGeometry x="-163.51999999999998" y="1223.4199999999998" width="100" height="60" as="geometry" />
        </mxCell>
        <mxCell id="G0A-RFpU1yBWGsKyXfba-47" style="edgeStyle=orthogonalEdgeStyle;rounded=0;orthogonalLoop=1;jettySize=auto;html=1;exitX=1;exitY=0.5;exitDx=0;exitDy=0;" parent="1" source="G0A-RFpU1yBWGsKyXfba-3" edge="1">
          <mxGeometry relative="1" as="geometry">
            <mxPoint x="-163" y="1272" as="targetPoint" />
            <Array as="points">
              <mxPoint x="-163" y="1271" />
              <mxPoint x="-16" y="1272" />
            </Array>
          </mxGeometry>
        </mxCell>
        <mxCell id="G0A-RFpU1yBWGsKyXfba-3" value="&amp;nbsp; &amp;nbsp; Ju-MiJu" style="shape=rhombus;perimeter=rhombusPerimeter;whiteSpace=wrap;html=1;align=center;fontStyle=1;fontSize=10;" parent="1" vertex="1">
          <mxGeometry x="-370.02" y="1241.3799999999999" width="60" height="60" as="geometry" />
        </mxCell>
        <mxCell id="G0A-RFpU1yBWGsKyXfba-19" value="(1,N)" style="text;html=1;strokeColor=none;fillColor=none;align=left;verticalAlign=middle;whiteSpace=wrap;rounded=0;fontSize=9;" parent="1" vertex="1">
          <mxGeometry x="-195.8999999999999" y="1272.8700000000001" width="25.5" height="12.5" as="geometry" />
        </mxCell>
        <mxCell id="G0A-RFpU1yBWGsKyXfba-20" value="(0,N)" style="text;html=1;strokeColor=none;fillColor=none;align=left;verticalAlign=middle;whiteSpace=wrap;rounded=0;fontSize=9;" parent="1" vertex="1">
          <mxGeometry x="-51.26999999999991" y="1261.47" width="25.5" height="12.5" as="geometry" />
        </mxCell>
        <mxCell id="G0A-RFpU1yBWGsKyXfba-21" value="(0,N)" style="text;html=1;strokeColor=none;fillColor=none;align=left;verticalAlign=middle;whiteSpace=wrap;rounded=0;fontSize=9;" parent="1" vertex="1">
          <mxGeometry x="-176.2499999999999" y="459.05999999999995" width="22.5" height="12.5" as="geometry" />
        </mxCell>
        <mxCell id="G0A-RFpU1yBWGsKyXfba-22" value="es_representada" style="text;html=1;strokeColor=none;fillColor=none;align=left;verticalAlign=middle;whiteSpace=wrap;rounded=0;fontSize=9;" parent="1" vertex="1">
          <mxGeometry x="-243.79999999999987" y="1258.3799999999999" width="50" height="12.5" as="geometry" />
        </mxCell>
        <mxCell id="G0A-RFpU1yBWGsKyXfba-23" value="corresponde_a" style="text;html=1;strokeColor=none;fillColor=none;align=left;verticalAlign=middle;whiteSpace=wrap;rounded=0;fontSize=9;" parent="1" vertex="1">
          <mxGeometry x="-210.51999999999987" y="469.92999999999995" width="50" height="12.5" as="geometry" />
        </mxCell>
        <mxCell id="G0A-RFpU1yBWGsKyXfba-24" value="corresponde_a" style="text;html=1;strokeColor=none;fillColor=none;align=left;verticalAlign=middle;whiteSpace=wrap;rounded=0;fontSize=9;" parent="1" vertex="1">
          <mxGeometry x="-54.64999999999981" y="1245.8500000000001" width="50" height="12.5" as="geometry" />
        </mxCell>
        <mxCell id="G0A-RFpU1yBWGsKyXfba-28" value="" style="endArrow=none;html=1;rounded=0;exitX=0;exitY=0;exitDx=0;exitDy=0;entryX=0;entryY=1;entryDx=0;entryDy=0;" parent="1" edge="1">
          <mxGeometry width="50" height="50" relative="1" as="geometry">
            <mxPoint x="-354.27" y="1256.2899999999997" as="sourcePoint" />
            <mxPoint x="-354.27" y="1286.2899999999997" as="targetPoint" />
          </mxGeometry>
        </mxCell>
        <mxCell id="G0A-RFpU1yBWGsKyXfba-31" style="edgeStyle=orthogonalEdgeStyle;rounded=0;orthogonalLoop=1;jettySize=auto;html=1;exitX=0;exitY=0.25;exitDx=0;exitDy=0;entryX=0.25;entryY=1;entryDx=0;entryDy=0;" parent="1" source="G0A-RFpU1yBWGsKyXfba-29" target="MmX11wm5HvuTR1FrTXqp-2" edge="1">
          <mxGeometry relative="1" as="geometry" />
        </mxCell>
        <mxCell id="G0A-RFpU1yBWGsKyXfba-29" value="ID" style="text;html=1;strokeColor=none;fillColor=none;align=center;verticalAlign=middle;whiteSpace=wrap;rounded=0;fontSize=8;fontStyle=1;" parent="1" vertex="1">
          <mxGeometry x="-367.23" y="1261.3799999999999" width="12.43" height="20" as="geometry" />
        </mxCell>
        <mxCell id="G0A-RFpU1yBWGsKyXfba-30" value="1:N" style="text;html=1;strokeColor=none;fillColor=none;align=center;verticalAlign=middle;whiteSpace=wrap;rounded=0;fontSize=15;fontStyle=1;" parent="1" vertex="1">
          <mxGeometry x="-351.24" y="1218.6899999999998" width="22.43" height="20" as="geometry" />
        </mxCell>
        <mxCell id="G0A-RFpU1yBWGsKyXfba-33" value="1:N" style="text;html=1;strokeColor=none;fillColor=none;align=center;verticalAlign=middle;whiteSpace=wrap;rounded=0;fontSize=15;fontStyle=1;direction=east;flipV=0;flipH=0;rotation=90;" parent="1" vertex="1">
          <mxGeometry x="-79.58999999999986" y="1000.1599999999999" width="22.5" height="15.75" as="geometry" />
        </mxCell>
        <mxCell id="G0A-RFpU1yBWGsKyXfba-39" value="(1,1)" style="text;html=1;strokeColor=none;fillColor=none;align=left;verticalAlign=middle;whiteSpace=wrap;rounded=0;fontSize=9;" parent="1" vertex="1">
          <mxGeometry x="-144.37000000000003" y="831.51" width="25.5" height="12.5" as="geometry" />
        </mxCell>
        <mxCell id="G0A-RFpU1yBWGsKyXfba-40" value="es_un" style="text;html=1;strokeColor=none;fillColor=none;align=left;verticalAlign=middle;whiteSpace=wrap;rounded=0;fontSize=9;" parent="1" vertex="1">
          <mxGeometry x="-147.8400000000001" y="817.4299999999996" width="50" height="12.5" as="geometry" />
        </mxCell>
        <mxCell id="G0A-RFpU1yBWGsKyXfba-42" value="" style="group;rotation=-180;" parent="1" vertex="1" connectable="0">
          <mxGeometry x="-213.04999999999995" y="1283.4199999999998" width="140.58999999999992" height="92.96000000000004" as="geometry" />
        </mxCell>
        <mxCell id="G0A-RFpU1yBWGsKyXfba-4" value="idUsuario" style="text;html=1;strokeColor=none;fillColor=none;align=left;verticalAlign=middle;whiteSpace=wrap;rounded=0;fontSize=9;rotation=0;" parent="G0A-RFpU1yBWGsKyXfba-42" vertex="1">
          <mxGeometry x="88" y="81" width="65" height="12.5" as="geometry" />
        </mxCell>
        <mxCell id="G0A-RFpU1yBWGsKyXfba-5" value="" style="ellipse;whiteSpace=wrap;html=1;aspect=fixed;fillColor=#CCCCCC;strokeColor=#000000;fontColor=#000000;gradientColor=default;gradientDirection=west;rotation=-180;" parent="G0A-RFpU1yBWGsKyXfba-42" vertex="1">
          <mxGeometry x="130" y="82" width="11" height="11" as="geometry" />
        </mxCell>
        <mxCell id="G0A-RFpU1yBWGsKyXfba-6" value="" style="ellipse;whiteSpace=wrap;html=1;aspect=fixed;fillColor=#CCCCCC;strokeColor=#000000;fontColor=#000000;gradientColor=default;gradientDirection=west;rotation=-180;" parent="G0A-RFpU1yBWGsKyXfba-42" vertex="1">
          <mxGeometry x="118" y="66" width="12.05" height="12.05" as="geometry" />
        </mxCell>
        <mxCell id="G0A-RFpU1yBWGsKyXfba-7" value="idJunta" style="text;html=1;strokeColor=none;fillColor=none;align=left;verticalAlign=middle;whiteSpace=wrap;rounded=0;fontSize=9;rotation=0;" parent="G0A-RFpU1yBWGsKyXfba-42" vertex="1">
          <mxGeometry x="84" y="66" width="45.06" height="12.5" as="geometry" />
        </mxCell>
        <mxCell id="G0A-RFpU1yBWGsKyXfba-8" value="fechaTomaPosesión" style="text;html=1;strokeColor=none;fillColor=none;align=left;verticalAlign=middle;whiteSpace=wrap;rounded=0;fontSize=9;rotation=0;" parent="G0A-RFpU1yBWGsKyXfba-42" vertex="1">
          <mxGeometry x="19" y="53" width="75" height="12.5" as="geometry" />
        </mxCell>
        <mxCell id="G0A-RFpU1yBWGsKyXfba-9" value="" style="ellipse;whiteSpace=wrap;html=1;aspect=fixed;fillColor=#FFFFFF;strokeColor=#000000;fontColor=#000000;rotation=-180;" parent="G0A-RFpU1yBWGsKyXfba-42" vertex="1">
          <mxGeometry x="104" y="54" width="11" height="11" as="geometry" />
        </mxCell>
        <mxCell id="G0A-RFpU1yBWGsKyXfba-10" value="fechaCese" style="text;html=1;strokeColor=none;fillColor=none;align=left;verticalAlign=middle;whiteSpace=wrap;rounded=0;fontSize=9;rotation=0;" parent="G0A-RFpU1yBWGsKyXfba-42" vertex="1">
          <mxGeometry x="41" y="36" width="75" height="12.5" as="geometry" />
        </mxCell>
        <mxCell id="G0A-RFpU1yBWGsKyXfba-11" value="" style="ellipse;whiteSpace=wrap;html=1;aspect=fixed;fillColor=#FFFFFF;strokeColor=#000000;fontColor=#000000;rotation=-180;" parent="G0A-RFpU1yBWGsKyXfba-42" vertex="1">
          <mxGeometry x="89" y="37" width="11" height="11" as="geometry" />
        </mxCell>
        <mxCell id="G0A-RFpU1yBWGsKyXfba-12" value="" style="endArrow=none;html=1;rounded=0;fontSize=10;exitX=0.5;exitY=1;exitDx=0;exitDy=0;entryX=0.193;entryY=0.004;entryDx=0;entryDy=0;entryPerimeter=0;" parent="G0A-RFpU1yBWGsKyXfba-42" source="G0A-RFpU1yBWGsKyXfba-5" edge="1">
          <mxGeometry width="50" height="50" relative="1" as="geometry">
            <mxPoint x="140" y="90" as="sourcePoint" />
            <mxPoint x="135" as="targetPoint" />
          </mxGeometry>
        </mxCell>
        <mxCell id="G0A-RFpU1yBWGsKyXfba-13" value="" style="endArrow=none;html=1;rounded=0;fontSize=10;exitX=0.5;exitY=1;exitDx=0;exitDy=0;entryX=0.305;entryY=0.004;entryDx=0;entryDy=0;entryPerimeter=0;" parent="G0A-RFpU1yBWGsKyXfba-42" source="G0A-RFpU1yBWGsKyXfba-6" edge="1">
          <mxGeometry width="50" height="50" relative="1" as="geometry">
            <mxPoint x="130" y="80" as="sourcePoint" />
            <mxPoint x="124" as="targetPoint" />
          </mxGeometry>
        </mxCell>
        <mxCell id="G0A-RFpU1yBWGsKyXfba-14" value="" style="endArrow=none;html=1;rounded=0;fontSize=10;exitX=0.5;exitY=1;exitDx=0;exitDy=0;entryX=0.449;entryY=0.009;entryDx=0;entryDy=0;entryPerimeter=0;" parent="G0A-RFpU1yBWGsKyXfba-42" source="G0A-RFpU1yBWGsKyXfba-9" edge="1">
          <mxGeometry width="50" height="50" relative="1" as="geometry">
            <mxPoint x="114" y="56" as="sourcePoint" />
            <mxPoint x="109" as="targetPoint" />
          </mxGeometry>
        </mxCell>
        <mxCell id="G0A-RFpU1yBWGsKyXfba-15" value="" style="endArrow=none;html=1;rounded=0;fontSize=10;exitX=0.5;exitY=1;exitDx=0;exitDy=0;entryX=0.586;entryY=0.009;entryDx=0;entryDy=0;entryPerimeter=0;dashed=1;" parent="G0A-RFpU1yBWGsKyXfba-42" source="G0A-RFpU1yBWGsKyXfba-11" edge="1">
          <mxGeometry width="50" height="50" relative="1" as="geometry">
            <mxPoint x="100" y="45" as="sourcePoint" />
            <mxPoint x="96" as="targetPoint" />
          </mxGeometry>
        </mxCell>
        <mxCell id="G0A-RFpU1yBWGsKyXfba-16" value="idRepresentación" style="text;html=1;strokeColor=none;fillColor=none;align=left;verticalAlign=middle;whiteSpace=wrap;rounded=0;fontSize=9;rotation=0;" parent="G0A-RFpU1yBWGsKyXfba-42" vertex="1">
          <mxGeometry y="21" width="75" height="12.5" as="geometry" />
        </mxCell>
        <mxCell id="G0A-RFpU1yBWGsKyXfba-17" value="" style="ellipse;whiteSpace=wrap;html=1;aspect=fixed;fillColor=#CCCCCC;strokeColor=#000000;fontColor=#000000;rotation=-180;" parent="G0A-RFpU1yBWGsKyXfba-42" vertex="1">
          <mxGeometry x="75" y="21" width="11" height="11" as="geometry" />
        </mxCell>
        <mxCell id="G0A-RFpU1yBWGsKyXfba-18" value="" style="endArrow=none;html=1;rounded=0;fontSize=10;exitX=0.5;exitY=1;exitDx=0;exitDy=0;entryX=0.73;entryY=0.009;entryDx=0;entryDy=0;entryPerimeter=0;" parent="G0A-RFpU1yBWGsKyXfba-42" source="G0A-RFpU1yBWGsKyXfba-17" edge="1">
          <mxGeometry width="50" height="50" relative="1" as="geometry">
            <mxPoint x="85" y="28" as="sourcePoint" />
            <mxPoint x="81" as="targetPoint" />
          </mxGeometry>
        </mxCell>
        <mxCell id="G0A-RFpU1yBWGsKyXfba-26" value="" style="ellipse;whiteSpace=wrap;html=1;aspect=fixed;fillColor=#FFFFFF;strokeColor=#000000;fontColor=#000000;rotation=-180;" parent="G0A-RFpU1yBWGsKyXfba-42" vertex="1">
          <mxGeometry x="58" y="9" width="11" height="11" as="geometry" />
        </mxCell>
        <mxCell id="G0A-RFpU1yBWGsKyXfba-27" value="" style="endArrow=none;html=1;rounded=0;fontSize=10;exitX=0.5;exitY=1;exitDx=0;exitDy=0;entryX=0.148;entryY=1.001;entryDx=0;entryDy=0;entryPerimeter=0;" parent="G0A-RFpU1yBWGsKyXfba-42" source="G0A-RFpU1yBWGsKyXfba-26" target="G0A-RFpU1yBWGsKyXfba-1" edge="1">
          <mxGeometry width="50" height="50" relative="1" as="geometry">
            <mxPoint x="71" y="12" as="sourcePoint" />
            <mxPoint x="71" y="-10" as="targetPoint" />
          </mxGeometry>
        </mxCell>
        <mxCell id="G0A-RFpU1yBWGsKyXfba-25" value="estado" style="text;html=1;strokeColor=none;fillColor=none;align=left;verticalAlign=middle;whiteSpace=wrap;rounded=0;fontSize=9;" parent="G0A-RFpU1yBWGsKyXfba-42" vertex="1">
          <mxGeometry x="26.049999999999898" y="7.000000000000227" width="75" height="12.5" as="geometry" />
        </mxCell>
        <mxCell id="G0A-RFpU1yBWGsKyXfba-50" value="" style="endArrow=none;html=1;rounded=0;fontSize=11;entryX=0.977;entryY=0.341;entryDx=0;entryDy=0;exitX=-0.003;exitY=0.201;exitDx=0;exitDy=0;entryPerimeter=0;exitPerimeter=0;" parent="1" target="wecATSCT4VCs9piwyTyY-57" edge="1" source="wt0K1hmHgsjhLcT-p73o-87">
          <mxGeometry width="50" height="50" relative="1" as="geometry">
            <mxPoint x="221.07000000000005" y="1032.9599999999998" as="sourcePoint" />
            <mxPoint x="313.2100000000002" y="920.9000000000001" as="targetPoint" />
          </mxGeometry>
        </mxCell>
        <mxCell id="G0A-RFpU1yBWGsKyXfba-51" value="id" style="text;html=1;strokeColor=none;fillColor=none;align=left;verticalAlign=middle;whiteSpace=wrap;rounded=0;fontSize=9;" parent="1" vertex="1">
          <mxGeometry x="161.2900000000001" y="1038.94" width="70.5" height="12.5" as="geometry" />
        </mxCell>
        <mxCell id="G0A-RFpU1yBWGsKyXfba-52" value="" style="endArrow=none;html=1;rounded=0;fontSize=10;fontColor=#000000;strokeColor=#000000;exitX=0;exitY=0.5;exitDx=0;exitDy=0;entryX=1;entryY=0.5;entryDx=0;entryDy=0;exitPerimeter=0;" parent="1" target="wecATSCT4VCs9piwyTyY-56" edge="1" source="wt0K1hmHgsjhLcT-p73o-87">
          <mxGeometry width="50" height="50" relative="1" as="geometry">
            <mxPoint x="233.0700000000001" y="1032.9599999999998" as="sourcePoint" />
            <mxPoint x="313.2100000000002" y="933.9000000000001" as="targetPoint" />
          </mxGeometry>
        </mxCell>
        <mxCell id="G0A-RFpU1yBWGsKyXfba-56" value="" style="endArrow=none;html=1;rounded=0;fontSize=10;fontColor=#000000;strokeColor=#000000;exitX=-0.012;exitY=0.787;exitDx=0;exitDy=0;entryX=1;entryY=0.5;entryDx=0;entryDy=0;exitPerimeter=0;" parent="1" target="wecATSCT4VCs9piwyTyY-59" edge="1" source="wt0K1hmHgsjhLcT-p73o-87">
          <mxGeometry width="50" height="50" relative="1" as="geometry">
            <mxPoint x="247.26" y="1032.84" as="sourcePoint" />
            <mxPoint x="326.7000000000002" y="946.78" as="targetPoint" />
          </mxGeometry>
        </mxCell>
        <mxCell id="G0A-RFpU1yBWGsKyXfba-64" value="(1,1)" style="text;html=1;strokeColor=none;fillColor=none;align=left;verticalAlign=middle;whiteSpace=wrap;rounded=0;fontSize=9;" parent="1" vertex="1">
          <mxGeometry x="271.2200000000001" y="1107.76" width="22.5" height="12.5" as="geometry" />
        </mxCell>
        <mxCell id="G0A-RFpU1yBWGsKyXfba-65" value="tiene" style="text;html=1;strokeColor=none;fillColor=none;align=left;verticalAlign=middle;whiteSpace=wrap;rounded=0;fontSize=9;" parent="1" vertex="1">
          <mxGeometry x="273.3600000000001" y="1093.6400000000003" width="50" height="12.5" as="geometry" />
        </mxCell>
        <mxCell id="G0A-RFpU1yBWGsKyXfba-70" value="es_convocada" style="text;html=1;strokeColor=none;fillColor=none;align=left;verticalAlign=middle;whiteSpace=wrap;rounded=0;fontSize=9;" parent="1" vertex="1">
          <mxGeometry x="318.2899999999998" y="414.69000000000005" width="55" height="12.5" as="geometry" />
        </mxCell>
        <mxCell id="G0A-RFpU1yBWGsKyXfba-71" value="(1,1)" style="text;html=1;strokeColor=none;fillColor=none;align=left;verticalAlign=middle;whiteSpace=wrap;rounded=0;fontSize=9;" parent="1" vertex="1">
          <mxGeometry x="318.28999999999974" y="430.31000000000006" width="25.5" height="12.5" as="geometry" />
        </mxCell>
        <mxCell id="G0A-RFpU1yBWGsKyXfba-87" value="" style="ellipse;whiteSpace=wrap;html=1;aspect=fixed;fillColor=#CCCCCC;strokeColor=#000000;fontColor=#000000;" parent="1" vertex="1">
          <mxGeometry x="358.9200000000001" y="798.56" width="11" height="11" as="geometry" />
        </mxCell>
        <mxCell id="G0A-RFpU1yBWGsKyXfba-88" value="idRepresentación" style="text;html=1;strokeColor=none;fillColor=none;align=left;verticalAlign=middle;whiteSpace=wrap;rounded=0;fontSize=9;" parent="1" vertex="1">
          <mxGeometry x="371.0400000000002" y="800.7200000000003" width="22.74" height="8.75" as="geometry" />
        </mxCell>
        <mxCell id="G0A-RFpU1yBWGsKyXfba-92" style="edgeStyle=orthogonalEdgeStyle;rounded=0;orthogonalLoop=1;jettySize=auto;html=1;exitX=0;exitY=0.5;exitDx=0;exitDy=0;entryX=1;entryY=0.852;entryDx=0;entryDy=0;entryPerimeter=0;strokeColor=default;endArrow=none;endFill=0;" parent="1" edge="1">
          <mxGeometry relative="1" as="geometry">
            <mxPoint x="358.4099999998973" y="805.0999999999998" as="sourcePoint" />
            <mxPoint x="325.06999999999994" y="801.3399999999998" as="targetPoint" />
          </mxGeometry>
        </mxCell>
        <mxCell id="G0A-RFpU1yBWGsKyXfba-95" value="(1,1)" style="text;html=1;strokeColor=none;fillColor=none;align=left;verticalAlign=middle;whiteSpace=wrap;rounded=0;fontSize=9;" parent="1" vertex="1">
          <mxGeometry x="232.82999999999998" y="464.20000000000005" width="25.5" height="12.5" as="geometry" />
        </mxCell>
        <mxCell id="G0A-RFpU1yBWGsKyXfba-96" value="representa" style="text;html=1;strokeColor=none;fillColor=none;align=left;verticalAlign=middle;whiteSpace=wrap;rounded=0;fontSize=9;" parent="1" vertex="1">
          <mxGeometry x="210.3300000000002" y="478.1399999999999" width="50" height="12.5" as="geometry" />
        </mxCell>
        <mxCell id="wecATSCT4VCs9piwyTyY-1" value="&lt;font style=&quot;font-size: 7px;&quot;&gt;&amp;nbsp; &amp;nbsp; &lt;/font&gt;&lt;font style=&quot;font-size: 6px;&quot;&gt;&amp;nbsp; &amp;nbsp;Usu-MiComLib&lt;/font&gt;" style="shape=rhombus;perimeter=rhombusPerimeter;whiteSpace=wrap;html=1;align=left;fontStyle=1;fontSize=10;" vertex="1" parent="1">
          <mxGeometry x="31.000000000000057" y="747.4899999999998" width="60" height="60" as="geometry" />
        </mxCell>
        <mxCell id="wecATSCT4VCs9piwyTyY-2" value="1:N" style="text;html=1;strokeColor=none;fillColor=none;align=center;verticalAlign=middle;whiteSpace=wrap;rounded=0;fontSize=15;fontStyle=1;" vertex="1" parent="1">
          <mxGeometry x="49.79000000000002" y="725.6099999999999" width="22.43" height="20" as="geometry" />
        </mxCell>
        <mxCell id="wecATSCT4VCs9piwyTyY-3" value="ID" style="text;html=1;strokeColor=none;fillColor=none;align=center;verticalAlign=middle;whiteSpace=wrap;rounded=0;fontSize=8;fontStyle=1;" vertex="1" parent="1">
          <mxGeometry x="32.70999999999998" y="767.6099999999999" width="12.43" height="20" as="geometry" />
        </mxCell>
        <mxCell id="wecATSCT4VCs9piwyTyY-4" value="" style="endArrow=none;html=1;rounded=0;exitX=0;exitY=0;exitDx=0;exitDy=0;entryX=0;entryY=1;entryDx=0;entryDy=0;" edge="1" parent="1">
          <mxGeometry width="50" height="50" relative="1" as="geometry">
            <mxPoint x="45.160000000000025" y="762.9399999999998" as="sourcePoint" />
            <mxPoint x="45.160000000000025" y="792.9399999999998" as="targetPoint" />
          </mxGeometry>
        </mxCell>
        <mxCell id="wecATSCT4VCs9piwyTyY-7" value="(1,1)" style="text;html=1;strokeColor=none;fillColor=none;align=left;verticalAlign=middle;whiteSpace=wrap;rounded=0;fontSize=9;" vertex="1" parent="1">
          <mxGeometry x="-62.05000000000007" y="781.35" width="25.5" height="12.5" as="geometry" />
        </mxCell>
        <mxCell id="wecATSCT4VCs9piwyTyY-8" value="es_un" style="text;html=1;strokeColor=none;fillColor=none;align=left;verticalAlign=middle;whiteSpace=wrap;rounded=0;fontSize=9;" vertex="1" parent="1">
          <mxGeometry x="-63.520000000000095" y="763.2699999999996" width="50" height="12.5" as="geometry" />
        </mxCell>
        <mxCell id="wecATSCT4VCs9piwyTyY-9" value="(0,N)" style="text;html=1;strokeColor=none;fillColor=none;align=left;verticalAlign=middle;whiteSpace=wrap;rounded=0;fontSize=9;" vertex="1" parent="1">
          <mxGeometry x="181.2900000000002" y="763.73" width="25.5" height="12.5" as="geometry" />
        </mxCell>
        <mxCell id="wecATSCT4VCs9piwyTyY-12" value="corresponde_a" style="text;html=1;strokeColor=none;fillColor=none;align=left;verticalAlign=middle;whiteSpace=wrap;rounded=0;fontSize=9;" vertex="1" parent="1">
          <mxGeometry x="140.00000000000034" y="780.0000000000002" width="50" height="12.5" as="geometry" />
        </mxCell>
        <mxCell id="wecATSCT4VCs9piwyTyY-13" value="(0,N)" style="text;html=1;strokeColor=none;fillColor=none;align=left;verticalAlign=middle;whiteSpace=wrap;rounded=0;fontSize=9;" vertex="1" parent="1">
          <mxGeometry x="-104.98999999999981" y="1195.72" width="22.5" height="12.5" as="geometry" />
        </mxCell>
        <mxCell id="wecATSCT4VCs9piwyTyY-14" value="corresponde_a" style="text;html=1;strokeColor=none;fillColor=none;align=left;verticalAlign=middle;whiteSpace=wrap;rounded=0;fontSize=9;" vertex="1" parent="1">
          <mxGeometry x="-107.23999999999981" y="1207.66" width="50" height="12.5" as="geometry" />
        </mxCell>
        <mxCell id="wecATSCT4VCs9piwyTyY-15" value="(0,N)" style="text;html=1;strokeColor=none;fillColor=none;align=left;verticalAlign=middle;whiteSpace=wrap;rounded=0;fontSize=9;" vertex="1" parent="1">
          <mxGeometry x="-101.3999999999998" y="463.20000000000005" width="22.5" height="12.5" as="geometry" />
        </mxCell>
        <mxCell id="wecATSCT4VCs9piwyTyY-16" value="corresponde_a" style="text;html=1;strokeColor=none;fillColor=none;align=left;verticalAlign=middle;whiteSpace=wrap;rounded=0;fontSize=9;" vertex="1" parent="1">
          <mxGeometry x="-103.6499999999998" y="475.1400000000001" width="50" height="12.5" as="geometry" />
        </mxCell>
        <mxCell id="wecATSCT4VCs9piwyTyY-21" value="Ct-TipCt" style="shape=rhombus;perimeter=rhombusPerimeter;whiteSpace=wrap;html=1;align=center;fontStyle=1;fontSize=10;" vertex="1" parent="1">
          <mxGeometry x="-773.2299999999999" y="354.69000000000005" width="60" height="60" as="geometry" />
        </mxCell>
        <mxCell id="wecATSCT4VCs9piwyTyY-22" value="ID" style="text;html=1;strokeColor=none;fillColor=none;align=center;verticalAlign=middle;whiteSpace=wrap;rounded=0;fontSize=8;fontStyle=1;" vertex="1" parent="1">
          <mxGeometry x="-748.4499999999999" y="394.69000000000005" width="12.43" height="20" as="geometry" />
        </mxCell>
        <mxCell id="wecATSCT4VCs9piwyTyY-23" value="" style="endArrow=none;html=1;rounded=0;exitX=1;exitY=0;exitDx=0;exitDy=0;entryX=0;entryY=0;entryDx=0;entryDy=0;" edge="1" parent="1">
          <mxGeometry width="50" height="50" relative="1" as="geometry">
            <mxPoint x="-728.23" y="399.69000000000005" as="sourcePoint" />
            <mxPoint x="-758.23" y="399.69000000000005" as="targetPoint" />
          </mxGeometry>
        </mxCell>
        <mxCell id="wecATSCT4VCs9piwyTyY-24" value="N:1" style="text;html=1;strokeColor=none;fillColor=none;align=center;verticalAlign=middle;whiteSpace=wrap;rounded=0;fontSize=15;fontStyle=1;rotation=90;" vertex="1" parent="1">
          <mxGeometry x="-711.33" y="373.8800000000001" width="22.43" height="20" as="geometry" />
        </mxCell>
        <mxCell id="wecATSCT4VCs9piwyTyY-35" value="&lt;font style=&quot;font-size: 7px;&quot;&gt;MiComLib - TipRG&lt;/font&gt;" style="shape=rhombus;perimeter=rhombusPerimeter;whiteSpace=wrap;html=1;align=center;fontStyle=1;fontSize=10;" vertex="1" parent="1">
          <mxGeometry x="234.3299999999998" y="879.9999999999999" width="60" height="60" as="geometry" />
        </mxCell>
        <mxCell id="wecATSCT4VCs9piwyTyY-36" value="ID" style="text;html=1;strokeColor=none;fillColor=none;align=center;verticalAlign=middle;whiteSpace=wrap;rounded=0;fontSize=8;fontStyle=1;" vertex="1" parent="1">
          <mxGeometry x="258.1099999999998" y="919.9999999999999" width="12.43" height="20" as="geometry" />
        </mxCell>
        <mxCell id="wecATSCT4VCs9piwyTyY-37" value="" style="endArrow=none;html=1;rounded=0;exitX=1;exitY=0;exitDx=0;exitDy=0;entryX=0;entryY=0;entryDx=0;entryDy=0;" edge="1" parent="1">
          <mxGeometry width="50" height="50" relative="1" as="geometry">
            <mxPoint x="279.3299999999998" y="924.9999999999999" as="sourcePoint" />
            <mxPoint x="249.3299999999998" y="924.9999999999999" as="targetPoint" />
          </mxGeometry>
        </mxCell>
        <mxCell id="wecATSCT4VCs9piwyTyY-38" value="1:N" style="text;html=1;strokeColor=none;fillColor=none;align=center;verticalAlign=middle;whiteSpace=wrap;rounded=0;fontSize=15;fontStyle=1;rotation=-90;" vertex="1" parent="1">
          <mxGeometry x="209.3299999999998" y="898.5599999999997" width="22.43" height="20" as="geometry" />
        </mxCell>
        <mxCell id="wecATSCT4VCs9piwyTyY-39" value="(0,N)" style="text;html=1;strokeColor=none;fillColor=none;align=left;verticalAlign=middle;whiteSpace=wrap;rounded=0;fontSize=9;" vertex="1" parent="1">
          <mxGeometry x="267.96000000000015" y="823.04" width="25.5" height="12.5" as="geometry" />
        </mxCell>
        <mxCell id="wecATSCT4VCs9piwyTyY-40" value="corresponde_a" style="text;html=1;strokeColor=none;fillColor=none;align=left;verticalAlign=middle;whiteSpace=wrap;rounded=0;fontSize=9;" vertex="1" parent="1">
          <mxGeometry x="266.0300000000002" y="810.5400000000002" width="50" height="12.5" as="geometry" />
        </mxCell>
        <mxCell id="wecATSCT4VCs9piwyTyY-47" style="edgeStyle=orthogonalEdgeStyle;rounded=0;orthogonalLoop=1;jettySize=auto;html=1;exitX=0.5;exitY=1;exitDx=0;exitDy=0;entryX=1.006;entryY=0.604;entryDx=0;entryDy=0;entryPerimeter=0;" edge="1" parent="1" source="wecATSCT4VCs9piwyTyY-43" target="G0A-RFpU1yBWGsKyXfba-1">
          <mxGeometry relative="1" as="geometry" />
        </mxCell>
        <mxCell id="wecATSCT4VCs9piwyTyY-48" style="edgeStyle=orthogonalEdgeStyle;rounded=0;orthogonalLoop=1;jettySize=auto;html=1;exitX=0.5;exitY=0;exitDx=0;exitDy=0;entryX=0.5;entryY=1;entryDx=0;entryDy=0;entryPerimeter=0;" edge="1" parent="1" source="wecATSCT4VCs9piwyTyY-43" target="wt0K1hmHgsjhLcT-p73o-87">
          <mxGeometry relative="1" as="geometry" />
        </mxCell>
        <mxCell id="wecATSCT4VCs9piwyTyY-43" value="&lt;font style=&quot;font-size: 8px;&quot;&gt;TipRG-MiEq&lt;/font&gt;" style="shape=rhombus;perimeter=rhombusPerimeter;whiteSpace=wrap;html=1;align=center;fontStyle=1;fontSize=10;" vertex="1" parent="1">
          <mxGeometry x="235.12000000000018" y="1165.2200000000003" width="60" height="60" as="geometry" />
        </mxCell>
        <mxCell id="wecATSCT4VCs9piwyTyY-44" value="1:N" style="text;html=1;strokeColor=none;fillColor=none;align=center;verticalAlign=middle;whiteSpace=wrap;rounded=0;fontSize=15;fontStyle=1;rotation=90;" vertex="1" parent="1">
          <mxGeometry x="295.1200000000002" y="1185.4700000000003" width="22.5" height="15.75" as="geometry" />
        </mxCell>
        <mxCell id="wecATSCT4VCs9piwyTyY-45" value="" style="endArrow=none;html=1;rounded=0;fontColor=#000000;strokeColor=#000000;exitX=1;exitY=1;exitDx=0;exitDy=0;entryX=0;entryY=1;entryDx=0;entryDy=0;" edge="1" parent="1">
          <mxGeometry width="50" height="50" relative="1" as="geometry">
            <mxPoint x="280.1200000000002" y="1180.2200000000003" as="sourcePoint" />
            <mxPoint x="250.12000000000018" y="1180.2200000000003" as="targetPoint" />
          </mxGeometry>
        </mxCell>
        <mxCell id="wecATSCT4VCs9piwyTyY-46" value="ID" style="text;html=1;strokeColor=none;fillColor=none;align=center;verticalAlign=middle;whiteSpace=wrap;rounded=0;fontSize=8;fontStyle=1;" vertex="1" parent="1">
          <mxGeometry x="259.5000000000003" y="1168.7200000000003" width="11.25" height="12" as="geometry" />
        </mxCell>
        <mxCell id="wecATSCT4VCs9piwyTyY-50" value="&lt;h1&gt;Tipo Representación Gobierno&lt;/h1&gt;&lt;p&gt;Director o Decano, Secretario, ViceDirectores o Vicedecanos, secretarios dirección...&lt;br&gt;&lt;/p&gt;" style="text;html=1;strokeColor=none;fillColor=none;spacing=5;spacingTop=-20;whiteSpace=wrap;overflow=hidden;rounded=0;fontStyle=2;" vertex="1" parent="1">
          <mxGeometry x="436" y="1062.2" width="500.27" height="81.41" as="geometry" />
        </mxCell>
        <mxCell id="wecATSCT4VCs9piwyTyY-51" value="&lt;h1&gt;Tipo Representación General&lt;/h1&gt;&lt;p&gt;Profesorado vinculación permanente, otro personal docente e investigador y&amp;nbsp; PAS, alumnado, personal libre designación&lt;br&gt;&lt;/p&gt;" style="text;html=1;strokeColor=none;fillColor=none;spacing=5;spacingTop=-20;whiteSpace=wrap;overflow=hidden;rounded=0;fontStyle=2;" vertex="1" parent="1">
          <mxGeometry x="439.30999999999995" y="1147.89" width="500.27" height="81.41" as="geometry" />
        </mxCell>
        <mxCell id="wecATSCT4VCs9piwyTyY-54" value="&lt;h1&gt;Tipo Centro&lt;/h1&gt;&lt;p&gt;Facultad, Escuela, Otro&lt;br&gt;&lt;/p&gt;" style="text;html=1;strokeColor=none;fillColor=none;spacing=5;spacingTop=-20;whiteSpace=wrap;overflow=hidden;rounded=0;fontStyle=2;" vertex="1" parent="1">
          <mxGeometry x="440.92999999999995" y="973.0399999999998" width="500.27" height="81.41" as="geometry" />
        </mxCell>
        <mxCell id="wecATSCT4VCs9piwyTyY-55" value="nombre" style="text;html=1;strokeColor=none;fillColor=none;align=left;verticalAlign=middle;whiteSpace=wrap;rounded=0;fontSize=9;" vertex="1" parent="1">
          <mxGeometry x="140" y="1055.2" width="37.5" height="12.5" as="geometry" />
        </mxCell>
        <mxCell id="wecATSCT4VCs9piwyTyY-56" value="" style="ellipse;whiteSpace=wrap;html=1;aspect=fixed;fillColor=#FFFFFF;strokeColor=#000000;fontColor=#000000;" vertex="1" parent="1">
          <mxGeometry x="177.51999999999998" y="1055.95" width="11" height="11" as="geometry" />
        </mxCell>
        <mxCell id="wecATSCT4VCs9piwyTyY-57" value="" style="ellipse;whiteSpace=wrap;html=1;aspect=fixed;fillColor=#000000;strokeColor=#000000;fontColor=#000000;" vertex="1" parent="1">
          <mxGeometry x="177.5000000000001" y="1039.69" width="11" height="11" as="geometry" />
        </mxCell>
        <mxCell id="wecATSCT4VCs9piwyTyY-58" value="estado" style="text;html=1;strokeColor=none;fillColor=none;align=left;verticalAlign=middle;whiteSpace=wrap;rounded=0;fontSize=9;" vertex="1" parent="1">
          <mxGeometry x="144.01999999999998" y="1071.7400000000002" width="37.5" height="12.5" as="geometry" />
        </mxCell>
        <mxCell id="wecATSCT4VCs9piwyTyY-59" value="" style="ellipse;whiteSpace=wrap;html=1;aspect=fixed;fillColor=#FFFFFF;strokeColor=#000000;fontColor=#000000;" vertex="1" parent="1">
          <mxGeometry x="177.51999999999998" y="1073.2400000000002" width="11" height="11" as="geometry" />
        </mxCell>
        <mxCell id="wecATSCT4VCs9piwyTyY-61" value="(1,1)" style="text;html=1;strokeColor=none;fillColor=none;align=left;verticalAlign=middle;whiteSpace=wrap;rounded=0;fontSize=9;" vertex="1" parent="1">
          <mxGeometry x="265.4800000000001" y="1019.46" width="22.5" height="12.5" as="geometry" />
        </mxCell>
        <mxCell id="wecATSCT4VCs9piwyTyY-62" value="tiene" style="text;html=1;strokeColor=none;fillColor=none;align=left;verticalAlign=middle;whiteSpace=wrap;rounded=0;fontSize=9;" vertex="1" parent="1">
          <mxGeometry x="267.6200000000001" y="1005.3400000000004" width="50" height="12.5" as="geometry" />
        </mxCell>
        <mxCell id="wecATSCT4VCs9piwyTyY-67" value="&lt;h1&gt;Tipo Convocatoria&lt;/h1&gt;&lt;p&gt;Ordinaria, extraordinaria, urgente&lt;br&gt;&lt;/p&gt;" style="text;html=1;strokeColor=none;fillColor=none;spacing=5;spacingTop=-20;whiteSpace=wrap;overflow=hidden;rounded=0;fontStyle=2;" vertex="1" parent="1">
          <mxGeometry x="439.30999999999995" y="1241.1000000000001" width="500.27" height="81.41" as="geometry" />
        </mxCell>
        <mxCell id="wecATSCT4VCs9piwyTyY-71" value="" style="ellipse;whiteSpace=wrap;html=1;aspect=fixed;fillColor=#FFFFFF;strokeColor=#000000;fontColor=#000000;" vertex="1" parent="1">
          <mxGeometry x="297.4200000000001" y="727.0500000000002" width="11" height="11" as="geometry" />
        </mxCell>
        <mxCell id="wecATSCT4VCs9piwyTyY-74" style="edgeStyle=orthogonalEdgeStyle;rounded=0;orthogonalLoop=1;jettySize=auto;html=1;exitX=0.823;exitY=0.006;exitDx=0;exitDy=0;entryX=0.5;entryY=1;entryDx=0;entryDy=0;strokeColor=default;endArrow=none;endFill=0;dashed=1;exitPerimeter=0;" edge="1" parent="1" source="yooLV80YAIJDi9W8emZc-2" target="wecATSCT4VCs9piwyTyY-71">
          <mxGeometry relative="1" as="geometry">
            <mxPoint x="369" y="800" as="sourcePoint" />
            <mxPoint x="335" y="798" as="targetPoint" />
          </mxGeometry>
        </mxCell>
        <mxCell id="wecATSCT4VCs9piwyTyY-75" value="responsable" style="text;html=1;strokeColor=none;fillColor=none;align=left;verticalAlign=middle;whiteSpace=wrap;rounded=0;fontSize=9;" vertex="1" parent="1">
          <mxGeometry x="308.4200000000002" y="727.0500000000002" width="35.52" height="9.38" as="geometry" />
        </mxCell>
      </root>
    </mxGraphModel>
  </diagram>
</mxfile>
